<svg width="322" height="145" viewBox="0 0 322 145" fill="none" xmlns="http://www.w3.org/2000/svg">
    <style>
        .accent{
            fill: #64257D;
        }
        .icon-text{
            fill: #DEDEDE;
        }
    </style>
    <g class="accent" clip-path="url(#clip0_39_84)">
        <path d="M292.672 92.5175V119.33C302.678 112.751 310.75 103.464 315.891 92.5175H292.672Z" />
        <path d="M292.672 71.7308H321.641C321.862 69.5195 322 67.2528 322 64.9862C322 42.2645 310.335 22.2794 292.672 10.6698V71.7308Z" />
        <path d="M268.126 92.5175H217.873V73.9422C220.333 68.939 223.429 63.3 227.105 56.9977C230.809 50.6953 234.928 44.2271 239.461 37.593C243.994 30.959 248.777 24.4631 253.835 18.1055C258.811 11.8307 263.786 6.16415 268.762 1.10567C264.947 0.414625 260.994 0.0276381 256.986 0.0276381C221.107 -3.85007e-06 192 29.107 192 64.9862C192 100.865 221.107 129.972 256.986 129.972C260.773 129.972 264.505 129.641 268.126 129.005V92.4899V92.5175Z" />
        <path d="M241.755 71.2056H268.153V30.9037C263.786 36.7638 259.142 43.1214 254.194 50.0319C249.274 56.9147 245.128 63.9911 241.755 71.2056Z" />
    </g>
    <g class="icon-text">
        <path d="M26.016 86.016C27.424 86.016 28.768 85.984 30.048 85.92C31.328 85.856 32.352 85.76 33.12 85.632V74.784C32.544 74.656 31.68 74.528 30.528 74.4C29.376 74.272 28.32 74.208 27.36 74.208C26.016 74.208 24.736 74.304 23.52 74.496C22.368 74.624 21.344 74.912 20.448 75.36C19.552 75.808 18.848 76.416 18.336 77.184C17.824 77.952 17.568 78.912 17.568 80.064C17.568 82.304 18.304 83.872 19.776 84.768C21.312 85.6 23.392 86.016 26.016 86.016ZM24.864 44.16C29.088 44.16 32.608 44.64 35.424 45.6C38.24 46.56 40.48 47.936 42.144 49.728C43.872 51.52 45.088 53.696 45.792 56.256C46.496 58.816 46.848 61.664 46.848 64.8V94.56C44.8 95.008 41.952 95.52 38.304 96.096C34.656 96.736 30.24 97.056 25.056 97.056C21.792 97.056 18.816 96.768 16.128 96.192C13.504 95.616 11.232 94.688 9.312 93.408C7.392 92.064 5.92 90.336 4.896 88.224C3.872 86.112 3.36 83.52 3.36 80.448C3.36 77.504 3.936 75.008 5.088 72.96C6.304 70.912 7.904 69.28 9.888 68.064C11.872 66.848 14.144 65.984 16.704 65.472C19.264 64.896 21.92 64.608 24.672 64.608C26.528 64.608 28.16 64.704 29.568 64.896C31.04 65.024 32.224 65.216 33.12 65.472V64.128C33.12 61.696 32.384 59.744 30.912 58.272C29.44 56.8 26.88 56.064 23.232 56.064C20.8 56.064 18.4 56.256 16.032 56.64C13.664 56.96 11.616 57.44 9.888 58.08L8.064 46.56C8.896 46.304 9.92 46.048 11.136 45.792C12.416 45.472 13.792 45.216 15.264 45.024C16.736 44.768 18.272 44.576 19.872 44.448C21.536 44.256 23.2 44.16 24.864 44.16ZM92.1345 71.136C92.1345 66.72 91.1425 63.2 89.1585 60.576C87.1745 57.888 84.2305 56.544 80.3265 56.544C79.0465 56.544 77.8625 56.608 76.7745 56.736C75.6865 56.8 74.7905 56.896 74.0865 57.024V82.848C74.9825 83.424 76.1345 83.904 77.5425 84.288C79.0145 84.672 80.4865 84.864 81.9585 84.864C88.7425 84.864 92.1345 80.288 92.1345 71.136ZM106.727 70.752C106.727 74.656 106.247 78.208 105.287 81.408C104.327 84.608 102.919 87.36 101.062 89.664C99.2065 91.968 96.9025 93.76 94.1505 95.04C91.3985 96.32 88.2305 96.96 84.6465 96.96C82.6625 96.96 80.8065 96.768 79.0785 96.384C77.3505 96 75.6865 95.456 74.0865 94.752V113.76H59.7825V47.232C61.0625 46.848 62.5345 46.496 64.1985 46.176C65.8625 45.792 67.5905 45.472 69.3825 45.216C71.2385 44.96 73.0945 44.768 74.9505 44.64C76.8705 44.448 78.6945 44.352 80.4225 44.352C84.5825 44.352 88.2945 44.992 91.5585 46.272C94.8225 47.488 97.5745 49.248 99.8145 51.552C102.055 53.792 103.751 56.544 104.903 59.808C106.119 63.072 106.727 66.72 106.727 70.752ZM150.072 71.136C150.072 66.72 149.08 63.2 147.096 60.576C145.112 57.888 142.168 56.544 138.264 56.544C136.984 56.544 135.8 56.608 134.712 56.736C133.624 56.8 132.728 56.896 132.024 57.024V82.848C132.92 83.424 134.072 83.904 135.48 84.288C136.952 84.672 138.424 84.864 139.896 84.864C146.68 84.864 150.072 80.288 150.072 71.136ZM164.664 70.752C164.664 74.656 164.184 78.208 163.224 81.408C162.264 84.608 160.856 87.36 159 89.664C157.144 91.968 154.84 93.76 152.088 95.04C149.336 96.32 146.168 96.96 142.584 96.96C140.6 96.96 138.744 96.768 137.016 96.384C135.288 96 133.624 95.456 132.024 94.752V113.76H117.72V47.232C119 46.848 120.472 46.496 122.136 46.176C123.8 45.792 125.528 45.472 127.32 45.216C129.176 44.96 131.032 44.768 132.888 44.64C134.808 44.448 136.632 44.352 138.36 44.352C142.52 44.352 146.232 44.992 149.496 46.272C152.76 47.488 155.512 49.248 157.752 51.552C159.992 53.792 161.688 56.544 162.84 59.808C164.056 63.072 164.664 66.72 164.664 70.752ZM190.154 85.728C192.778 85.728 194.634 85.472 195.722 84.96C196.81 84.448 197.354 83.456 197.354 81.984C197.354 80.832 196.65 79.84 195.242 79.008C193.834 78.112 191.69 77.12 188.81 76.032C186.57 75.2 184.522 74.336 182.666 73.44C180.874 72.544 179.338 71.488 178.058 70.272C176.778 68.992 175.786 67.488 175.082 65.76C174.378 64.032 174.026 61.952 174.026 59.52C174.026 54.784 175.786 51.04 179.306 48.288C182.826 45.536 187.658 44.16 193.802 44.16C196.874 44.16 199.818 44.448 202.634 45.024C205.45 45.536 207.69 46.112 209.354 46.752L206.858 57.888C205.194 57.312 203.37 56.8 201.386 56.352C199.466 55.904 197.29 55.68 194.858 55.68C190.378 55.68 188.138 56.928 188.138 59.424C188.138 60 188.234 60.512 188.426 60.96C188.618 61.408 189.002 61.856 189.578 62.304C190.154 62.688 190.922 63.136 191.882 63.648C192.906 64.096 194.186 64.608 195.722 65.184C198.858 66.336 201.45 67.488 203.498 68.64C205.546 69.728 207.146 70.944 208.298 72.288C209.514 73.568 210.346 75.008 210.794 76.608C211.306 78.208 211.562 80.064 211.562 82.176C211.562 87.168 209.674 90.944 205.898 93.504C202.186 96.064 196.906 97.344 190.058 97.344C185.578 97.344 181.834 96.96 178.826 96.192C175.882 95.424 173.834 94.784 172.682 94.272L175.082 82.656C177.514 83.616 180.01 84.384 182.57 84.96C185.13 85.472 187.658 85.728 190.154 85.728Z" />
        <path d="M39.8 126.64C39.8 124.773 40.08 123.147 40.64 121.76C41.2267 120.347 41.9867 119.173 42.92 118.24C43.8533 117.307 44.92 116.6 46.12 116.12C47.3467 115.64 48.6 115.4 49.88 115.4C52.8667 115.4 55.2267 116.32 56.96 118.16C58.6933 119.973 59.56 122.653 59.56 126.2C59.56 126.547 59.5467 126.933 59.52 127.36C59.4933 127.76 59.4667 128.12 59.44 128.44H45.92C46.0533 129.667 46.6267 130.64 47.64 131.36C48.6533 132.08 50.0133 132.44 51.72 132.44C52.8133 132.44 53.88 132.347 54.92 132.16C55.9867 131.947 56.8533 131.693 57.52 131.4L58.32 136.24C58 136.4 57.5733 136.56 57.04 136.72C56.5067 136.88 55.9067 137.013 55.24 137.12C54.6 137.253 53.9067 137.36 53.16 137.44C52.4133 137.52 51.6667 137.56 50.92 137.56C49.0267 137.56 47.3733 137.28 45.96 136.72C44.5733 136.16 43.4133 135.4 42.48 134.44C41.5733 133.453 40.8933 132.293 40.44 130.96C40.0133 129.627 39.8 128.187 39.8 126.64ZM53.8 124.36C53.7733 123.853 53.68 123.36 53.52 122.88C53.3867 122.4 53.16 121.973 52.84 121.6C52.5467 121.227 52.16 120.92 51.68 120.68C51.2267 120.44 50.6533 120.32 49.96 120.32C49.2933 120.32 48.72 120.44 48.24 120.68C47.76 120.893 47.36 121.187 47.04 121.56C46.72 121.933 46.4667 122.373 46.28 122.88C46.12 123.36 46 123.853 45.92 124.36H53.8ZM69.8794 137C68.5194 134.333 67.1327 131.213 65.7194 127.64C64.3327 124.067 63.0127 120.173 61.7594 115.96H68.0794C68.346 117 68.6527 118.133 68.9994 119.36C69.3727 120.56 69.746 121.787 70.1194 123.04C70.5194 124.267 70.906 125.467 71.2794 126.64C71.6794 127.813 72.066 128.88 72.4394 129.84C72.786 128.88 73.1594 127.813 73.5594 126.64C73.9594 125.467 74.346 124.267 74.7194 123.04C75.1194 121.787 75.4927 120.56 75.8394 119.36C76.2127 118.133 76.5327 117 76.7994 115.96H82.9594C81.706 120.173 80.3727 124.067 78.9594 127.64C77.5727 131.213 76.1994 134.333 74.8394 137H69.8794ZM84.6047 126.64C84.6047 124.773 84.8847 123.147 85.4447 121.76C86.0314 120.347 86.7914 119.173 87.7247 118.24C88.658 117.307 89.7247 116.6 90.9247 116.12C92.1514 115.64 93.4047 115.4 94.6847 115.4C97.6714 115.4 100.031 116.32 101.765 118.16C103.498 119.973 104.365 122.653 104.365 126.2C104.365 126.547 104.351 126.933 104.325 127.36C104.298 127.76 104.271 128.12 104.245 128.44H90.7247C90.858 129.667 91.4314 130.64 92.4447 131.36C93.458 132.08 94.818 132.44 96.5247 132.44C97.618 132.44 98.6847 132.347 99.7247 132.16C100.791 131.947 101.658 131.693 102.325 131.4L103.125 136.24C102.805 136.4 102.378 136.56 101.845 136.72C101.311 136.88 100.711 137.013 100.045 137.12C99.4047 137.253 98.7114 137.36 97.9647 137.44C97.218 137.52 96.4714 137.56 95.7247 137.56C93.8314 137.56 92.178 137.28 90.7647 136.72C89.378 136.16 88.218 135.4 87.2847 134.44C86.378 133.453 85.698 132.293 85.2447 130.96C84.818 129.627 84.6047 128.187 84.6047 126.64ZM98.6047 124.36C98.578 123.853 98.4847 123.36 98.3247 122.88C98.1914 122.4 97.9647 121.973 97.6447 121.6C97.3514 121.227 96.9647 120.92 96.4847 120.68C96.0314 120.44 95.458 120.32 94.7647 120.32C94.098 120.32 93.5247 120.44 93.0447 120.68C92.5647 120.893 92.1647 121.187 91.8447 121.56C91.5247 121.933 91.2714 122.373 91.0847 122.88C90.9247 123.36 90.8047 123.853 90.7247 124.36H98.6047ZM121.644 121.24C121.111 121.107 120.484 120.973 119.764 120.84C119.044 120.68 118.271 120.6 117.444 120.6C117.071 120.6 116.617 120.64 116.084 120.72C115.577 120.773 115.191 120.84 114.924 120.92V137H108.964V117.08C110.031 116.707 111.284 116.36 112.724 116.04C114.191 115.693 115.817 115.52 117.604 115.52C117.924 115.52 118.311 115.547 118.764 115.6C119.217 115.627 119.671 115.68 120.124 115.76C120.577 115.813 121.031 115.893 121.484 116C121.937 116.08 122.324 116.187 122.644 116.32L121.644 121.24ZM145.769 115.96C144.569 120.013 143.316 123.813 142.009 127.36C140.702 130.907 139.276 134.347 137.729 137.68C137.169 138.88 136.609 139.893 136.049 140.72C135.489 141.573 134.876 142.267 134.209 142.8C133.542 143.36 132.782 143.76 131.929 144C131.102 144.267 130.129 144.4 129.009 144.4C128.076 144.4 127.209 144.307 126.409 144.12C125.636 143.96 124.996 143.773 124.489 143.56L125.529 138.8C126.142 139.013 126.689 139.16 127.169 139.24C127.649 139.32 128.156 139.36 128.689 139.36C129.756 139.36 130.569 139.067 131.129 138.48C131.716 137.92 132.209 137.133 132.609 136.12C131.249 133.453 129.889 130.467 128.529 127.16C127.169 123.827 125.889 120.093 124.689 115.96H131.009C131.276 117 131.582 118.133 131.929 119.36C132.302 120.56 132.689 121.787 133.089 123.04C133.489 124.267 133.889 125.467 134.289 126.64C134.716 127.813 135.116 128.88 135.489 129.84C135.836 128.88 136.196 127.813 136.569 126.64C136.942 125.467 137.302 124.267 137.649 123.04C138.022 121.787 138.369 120.56 138.689 119.36C139.036 118.133 139.342 117 139.609 115.96H145.769ZM168.097 126.44C168.097 128.093 167.857 129.613 167.377 131C166.897 132.36 166.204 133.533 165.297 134.52C164.391 135.48 163.297 136.227 162.017 136.76C160.764 137.293 159.351 137.56 157.777 137.56C156.231 137.56 154.817 137.293 153.537 136.76C152.284 136.227 151.204 135.48 150.297 134.52C149.391 133.533 148.684 132.36 148.177 131C147.671 129.613 147.417 128.093 147.417 126.44C147.417 124.787 147.671 123.28 148.177 121.92C148.711 120.56 149.431 119.4 150.337 118.44C151.271 117.48 152.364 116.733 153.617 116.2C154.897 115.667 156.284 115.4 157.777 115.4C159.297 115.4 160.684 115.667 161.937 116.2C163.217 116.733 164.311 117.48 165.217 118.44C166.124 119.4 166.831 120.56 167.337 121.92C167.844 123.28 168.097 124.787 168.097 126.44ZM162.017 126.44C162.017 124.6 161.644 123.16 160.897 122.12C160.177 121.053 159.137 120.52 157.777 120.52C156.417 120.52 155.364 121.053 154.617 122.12C153.871 123.16 153.497 124.6 153.497 126.44C153.497 128.28 153.871 129.747 154.617 130.84C155.364 131.907 156.417 132.44 157.777 132.44C159.137 132.44 160.177 131.907 160.897 130.84C161.644 129.747 162.017 128.28 162.017 126.44ZM172.714 116.68C173.727 116.387 175.034 116.12 176.634 115.88C178.234 115.613 179.914 115.48 181.674 115.48C183.461 115.48 184.941 115.72 186.114 116.2C187.314 116.653 188.261 117.307 188.954 118.16C189.647 119.013 190.141 120.027 190.434 121.2C190.727 122.373 190.874 123.68 190.874 125.12V137H184.914V125.84C184.914 123.92 184.661 122.56 184.154 121.76C183.647 120.96 182.701 120.56 181.314 120.56C180.887 120.56 180.434 120.587 179.954 120.64C179.474 120.667 179.047 120.707 178.674 120.76V137H172.714V116.68ZM195.269 126.64C195.269 124.773 195.549 123.147 196.109 121.76C196.695 120.347 197.455 119.173 198.389 118.24C199.322 117.307 200.389 116.6 201.589 116.12C202.815 115.64 204.069 115.4 205.349 115.4C208.335 115.4 210.695 116.32 212.429 118.16C214.162 119.973 215.029 122.653 215.029 126.2C215.029 126.547 215.015 126.933 214.989 127.36C214.962 127.76 214.935 128.12 214.909 128.44H201.389C201.522 129.667 202.095 130.64 203.109 131.36C204.122 132.08 205.482 132.44 207.189 132.44C208.282 132.44 209.349 132.347 210.389 132.16C211.455 131.947 212.322 131.693 212.989 131.4L213.789 136.24C213.469 136.4 213.042 136.56 212.509 136.72C211.975 136.88 211.375 137.013 210.709 137.12C210.069 137.253 209.375 137.36 208.629 137.44C207.882 137.52 207.135 137.56 206.389 137.56C204.495 137.56 202.842 137.28 201.429 136.72C200.042 136.16 198.882 135.4 197.949 134.44C197.042 133.453 196.362 132.293 195.909 130.96C195.482 129.627 195.269 128.187 195.269 126.64ZM209.269 124.36C209.242 123.853 209.149 123.36 208.989 122.88C208.855 122.4 208.629 121.973 208.309 121.6C208.015 121.227 207.629 120.92 207.149 120.68C206.695 120.44 206.122 120.32 205.429 120.32C204.762 120.32 204.189 120.44 203.709 120.68C203.229 120.893 202.829 121.187 202.509 121.56C202.189 121.933 201.935 122.373 201.749 122.88C201.589 123.36 201.469 123.853 201.389 124.36H209.269ZM225.468 133.84C225.468 135.04 225.081 135.96 224.308 136.6C223.561 137.213 222.708 137.52 221.748 137.52C220.788 137.52 219.921 137.213 219.148 136.6C218.401 135.96 218.028 135.04 218.028 133.84C218.028 132.64 218.401 131.733 219.148 131.12C219.921 130.48 220.788 130.16 221.748 130.16C222.708 130.16 223.561 130.48 224.308 131.12C225.081 131.733 225.468 132.64 225.468 133.84ZM229.272 110.72L235.232 109.76V115.96H242.392V120.92H235.232V128.32C235.232 129.573 235.445 130.573 235.872 131.32C236.325 132.067 237.219 132.44 238.552 132.44C239.192 132.44 239.845 132.387 240.512 132.28C241.205 132.147 241.832 131.973 242.392 131.76L243.232 136.4C242.512 136.693 241.712 136.947 240.832 137.16C239.952 137.373 238.872 137.48 237.592 137.48C235.965 137.48 234.619 137.267 233.552 136.84C232.485 136.387 231.632 135.773 230.992 135C230.352 134.2 229.899 133.24 229.632 132.12C229.392 131 229.272 129.76 229.272 128.4V110.72ZM245.464 126.64C245.464 124.773 245.744 123.147 246.304 121.76C246.891 120.347 247.651 119.173 248.584 118.24C249.517 117.307 250.584 116.6 251.784 116.12C253.011 115.64 254.264 115.4 255.544 115.4C258.531 115.4 260.891 116.32 262.624 118.16C264.357 119.973 265.224 122.653 265.224 126.2C265.224 126.547 265.211 126.933 265.184 127.36C265.157 127.76 265.131 128.12 265.104 128.44H251.584C251.717 129.667 252.291 130.64 253.304 131.36C254.317 132.08 255.677 132.44 257.384 132.44C258.477 132.44 259.544 132.347 260.584 132.16C261.651 131.947 262.517 131.693 263.184 131.4L263.984 136.24C263.664 136.4 263.237 136.56 262.704 136.72C262.171 136.88 261.571 137.013 260.904 137.12C260.264 137.253 259.571 137.36 258.824 137.44C258.077 137.52 257.331 137.56 256.584 137.56C254.691 137.56 253.037 137.28 251.624 136.72C250.237 136.16 249.077 135.4 248.144 134.44C247.237 133.453 246.557 132.293 246.104 130.96C245.677 129.627 245.464 128.187 245.464 126.64ZM259.464 124.36C259.437 123.853 259.344 123.36 259.184 122.88C259.051 122.4 258.824 121.973 258.504 121.6C258.211 121.227 257.824 120.92 257.344 120.68C256.891 120.44 256.317 120.32 255.624 120.32C254.957 120.32 254.384 120.44 253.904 120.68C253.424 120.893 253.024 121.187 252.704 121.56C252.384 121.933 252.131 122.373 251.944 122.88C251.784 123.36 251.664 123.853 251.584 124.36H259.464ZM268.823 126.48C268.823 124.96 269.063 123.533 269.543 122.2C270.05 120.84 270.77 119.667 271.703 118.68C272.637 117.667 273.77 116.867 275.103 116.28C276.437 115.693 277.957 115.4 279.663 115.4C280.783 115.4 281.81 115.507 282.743 115.72C283.677 115.907 284.583 116.187 285.463 116.56L284.223 121.32C283.663 121.107 283.05 120.92 282.383 120.76C281.717 120.6 280.97 120.52 280.143 120.52C278.383 120.52 277.063 121.067 276.183 122.16C275.33 123.253 274.903 124.693 274.903 126.48C274.903 128.373 275.303 129.84 276.103 130.88C276.93 131.92 278.357 132.44 280.383 132.44C281.103 132.44 281.877 132.373 282.703 132.24C283.53 132.107 284.29 131.893 284.983 131.6L285.823 136.48C285.13 136.773 284.263 137.027 283.223 137.24C282.183 137.453 281.037 137.56 279.783 137.56C277.863 137.56 276.21 137.28 274.823 136.72C273.437 136.133 272.29 135.347 271.383 134.36C270.503 133.373 269.85 132.213 269.423 130.88C269.023 129.52 268.823 128.053 268.823 126.48ZM289.823 137V106.92L295.783 105.96V116.04C296.183 115.907 296.69 115.787 297.303 115.68C297.943 115.547 298.557 115.48 299.143 115.48C300.85 115.48 302.263 115.72 303.383 116.2C304.53 116.653 305.437 117.307 306.103 118.16C306.797 119.013 307.277 120.027 307.543 121.2C307.837 122.373 307.983 123.68 307.983 125.12V137H302.023V125.84C302.023 123.92 301.77 122.56 301.263 121.76C300.783 120.96 299.877 120.56 298.543 120.56C298.01 120.56 297.503 120.613 297.023 120.72C296.57 120.8 296.157 120.893 295.783 121V137H289.823Z" />
    </g>
    <defs>
        <clipPath id="clip0_39_84">
        <rect width="130" height="130" fill="white" transform="translate(192)"/>
        </clipPath>
    </defs>
</svg>
