<svg width="100" height="100" viewBox="0 0 100 100" fill="none" xmlns="http://www.w3.org/2000/svg">
    <!--Free to Use: © 2023 apps4everyone.tech-->
    <style>
        .light-fill{
            fill: #DEDEDE;
        }
        .mid-fill{
            fill: #555;
        }
    </style>

    <rect class="light-fill icon-bg " x="0.979492" y="0.979736" width="100" height="100" rx="8" />
    <path class="accent img-bg" d="M8 12C8 9.79086 9.79086 8 12 8L89 8C91.2091 8 93 9.79086 93 12V57.7391C93 58.8437 92.1046 59.7391 91 59.7391H10C8.89543 59.7391 8 58.8437 8 57.7391L8 12Z" fill="#00AAEE"/>
    <path class="mid-fill img-fg " d="M39.688 31.5668C35.688 31.5668 21.6646 59.5528 21.6646 59.5528H86.8819C86.8819 59.5528 68.188 19.0668 65.7639 19.1801C63.3399 19.2934 52.688 45.5668 52.688 45.5668C52.688 45.5668 43.688 31.5668 39.688 31.5668Z" fill="#555555"/>
    <rect class="mid-fill textbox" x="8.18799" y="63.5668" width="48" height="6" rx="3" />
    <rect class="mid-fill textbox" x="8.24219" y="72.8385" width="84.472" height="4" rx="2" />
    <rect class="mid-fill textbox" x="8.18799" y="79.5668" width="84.472" height="4" rx="2" />
    <path class="mid-fill icon heart" d="M36.8489 86.694L38.1388 90.664H42.313L38.936 93.1175L40.2259 97.0875L36.8489 94.6339L33.4718 97.0875L34.7617 93.1175L31.3847 90.664H35.5589L36.8489 86.694Z" />
    <path class="mid-fill icon star " d="M10.5478 92.0946C10.1364 91.5309 9.9658 90.8267 10.0736 90.1372C10.1813 89.4476 10.5586 88.829 11.1224 88.4176C11.6861 88.0062 12.3903 87.8356 13.0799 87.9434C13.7694 88.0511 14.388 88.4284 14.7994 88.9922C15.2108 88.4284 15.8293 88.0511 16.5189 87.9434C17.2085 87.8356 17.9126 88.0062 18.4764 88.4176C19.0402 88.829 19.4174 89.4476 19.5252 90.1372C19.6329 90.8267 19.4623 91.5309 19.0509 92.0946L14.7994 97.0356L10.5478 92.0946Z" />
</svg>
