<svg width="200" height="200" viewBox="0 0 200 200" fill="none" xmlns="http://www.w3.org/2000/svg">
<circle cx="101.415" cy="100.472" r="91.9811" fill="#D9D9D9"/>
<path d="M148.113 135.849V171.698C160.717 162.902 170.883 150.484 177.359 135.849H148.113Z" fill="#64257D"/>
<path d="M148.113 109.434H185.387C185.671 106.496 185.849 103.484 185.849 100.472C185.849 70.2819 170.84 43.7276 148.113 28.3019V109.434Z" fill="#64257D"/>
<path d="M115.209 135.96H49.743V111.686C52.9479 105.147 56.9811 97.7785 61.7704 89.5426C66.5958 81.3067 71.9613 72.854 77.8669 64.1847C83.7726 55.5153 90.0023 47.0265 96.5922 38.7184C103.074 30.5186 109.556 23.1135 116.038 16.5031C111.068 15.6001 105.919 15.0944 100.697 15.0944C53.9562 15.0582 16.0376 53.0951 16.0376 99.9819C16.0376 146.869 53.9562 184.906 100.697 184.906C105.631 184.906 110.492 184.472 115.209 183.641V135.924V135.96Z" fill="#64257D"/>
<path d="M79.2451 108.491H116.981V51.8868C110.738 60.1172 104.099 69.0465 97.0264 78.7522C89.9929 88.4191 84.0658 98.3578 79.2451 108.491Z" fill="#64257D"/>
</svg>
