<svg aria-label="follow" class="a4e icon" width="30" height="30" viewBox="0 0 30 30" fill="none" xmlns="http://www.w3.org/2000/svg">
<!-- DO NOT REMOVE | copyright 2023 by apps4everyone.tech under MIT license -->
<g fill="currentColor">
<path fill-rule="evenodd" clip-rule="evenodd" d="M15 30C23.2843 30 30 23.2843 30 15C30 6.71573 23.2843 0 15 0C6.71573 0 0 6.71573 0 15C0 23.2843 6.71573 30 15 30ZM4.8 21.6V22.8982C7.15978 25.9413 10.8512 27.9 15.0002 27.9C16.6965 27.9 18.3164 27.5726 19.8 26.9775V21.6C19.8 17.4579 16.4421 14.1 12.3 14.1C8.15786 14.1 4.8 17.4579 4.8 21.6ZM17.7 8.1C17.7 11.0823 15.2823 13.5 12.3 13.5C9.31766 13.5 6.9 11.0823 6.9 8.1C6.9 5.11766 9.31766 2.7 12.3 2.7C15.2823 2.7 17.7 5.11766 17.7 8.1ZM22.8 18C22.2598 18 21.8218 17.562 21.8218 17.0217V14.4783H19.2783C18.738 14.4783 18.3 14.0403 18.3 13.5C18.3 12.9597 18.738 12.5217 19.2783 12.5217H21.8218V9.97826C21.8218 9.43798 22.2598 9 22.8 9C23.3403 9 23.7783 9.43798 23.7783 9.97826V12.5217H26.3217C26.862 12.5217 27.3 12.9597 27.3 13.5C27.3 14.0403 26.862 14.4783 26.3217 14.4783H23.7783V17.0217C23.7783 17.562 23.3403 18 22.8 18Z" />
</g>
</svg>
