<svg aria-label="follow" class="a4e icon" width="30" height="30" viewBox="0 0 30 30" fill="none" xmlns="http://www.w3.org/2000/svg">
<!-- DO NOT REMOVE | copyright 2023 by apps4everyone.tech under MIT license -->
<g fill="currentColor">
<path fill-rule="evenodd" clip-rule="evenodd" d="M0 8C0 3.58172 3.58172 0 8 0H22C26.4183 0 30 3.58172 30 8V22C30 26.4183 26.4183 30 22 30H8C3.58172 30 0 26.4183 0 22V8ZM2.1 6.1C2.1 3.89086 3.89086 2.1 6.1 2.1H23.9C26.1091 2.1 27.9 3.89086 27.9 6.1V23.9C27.9 26.1091 26.1091 27.9 23.9 27.9H17.7249C18.2605 27.4415 18.6 26.7604 18.6 26V21C18.6 16.8579 15.2421 13.5 11.1 13.5C6.95786 13.5 3.6 16.8579 3.6 21V26C3.6 26.4644 3.72665 26.8993 3.94728 27.2719C2.8364 26.5612 2.1 25.3166 2.1 23.9V6.1ZM11.1 13.2C14.0823 13.2 16.5 10.7823 16.5 7.8C16.5 4.81766 14.0823 2.4 11.1 2.4C8.11766 2.4 5.7 4.81766 5.7 7.8C5.7 10.7823 8.11766 13.2 11.1 13.2ZM21.6 17.1C21.0598 17.1 20.6218 16.662 20.6218 16.1217V13.5783H18.0783C17.538 13.5783 17.1 13.1403 17.1 12.6C17.1 12.0597 17.538 11.6217 18.0783 11.6217H20.6218V9.07826C20.6218 8.53798 21.0598 8.1 21.6 8.1C22.1403 8.1 22.5783 8.53798 22.5783 9.07826V11.6217H25.1217C25.662 11.6217 26.1 12.0597 26.1 12.6C26.1 13.1403 25.662 13.5783 25.1217 13.5783H22.5783V16.1217C22.5783 16.662 22.1403 17.1 21.6 17.1Z" />
</g>
</svg>
