<svg aria-label="follow" class="a4e icon" width="30" height="30" viewBox="0 0 30 30" fill="none" xmlns="http://www.w3.org/2000/svg">
<!-- DO NOT REMOVE | copyright 2023 by apps4everyone.tech under MIT license -->
<g fill="currentColor">
<path fill-rule="evenodd" clip-rule="evenodd" d="M8 0C3.58172 0 0 3.58172 0 8V22C0 26.4183 3.58172 30 8 30H22C26.4183 30 30 26.4183 30 22V8C30 3.58172 26.4183 0 22 0H8ZM11.1 13.2C14.0823 13.2 16.5 10.7823 16.5 7.8C16.5 4.81766 14.0823 2.4 11.1 2.4C8.11766 2.4 5.7 4.81766 5.7 7.8C5.7 10.7823 8.11766 13.2 11.1 13.2ZM3.6 21C3.6 16.8579 6.95786 13.5 11.1 13.5C15.2421 13.5 18.6 16.8579 18.6 21V24.75C18.6 25.9926 17.5926 27 16.35 27H5.85C4.60736 27 3.6 25.9926 3.6 24.75V21ZM22.2 16.8C21.6598 16.8 21.2218 16.362 21.2218 15.8217V13.2783H18.6783C18.138 13.2783 17.7 12.8403 17.7 12.3C17.7 11.7597 18.138 11.3217 18.6783 11.3217H21.2218V8.77826C21.2218 8.23798 21.6598 7.8 22.2 7.8C22.7403 7.8 23.1783 8.23798 23.1783 8.77826V11.3217H25.7217C26.262 11.3217 26.7 11.7597 26.7 12.3C26.7 12.8403 26.262 13.2783 25.7217 13.2783H23.1783V15.8217C23.1783 16.362 22.7403 16.8 22.2 16.8Z" />
</g>
</svg>
