<svg aria-label="follow" class="a4e icon" width="30" height="30" viewBox="0 0 30 30" fill="none" xmlns="http://www.w3.org/2000/svg">
<!-- DO NOT REMOVE | copyright 2023 by apps4everyone.tech under MIT license -->
<g fill="currentColor">
<path fill-rule="evenodd" clip-rule="evenodd" d="M30 15C30 23.2843 23.2843 30 15 30C6.71573 30 0 23.2843 0 15C0 6.71573 6.71573 0 15 0C23.2843 0 30 6.71573 30 15ZM4.2 22.0575V21.6C4.2 17.4579 7.55786 14.1 11.7 14.1C15.8421 14.1 19.2 17.4579 19.2 21.6V27.2008C18.4954 27.4433 17.7631 27.6265 17.0092 27.7444C23.1794 26.7795 27.9 21.441 27.9 15C27.9 7.87553 22.1245 2.1 15 2.1C13.5792 2.1 12.2121 2.32969 10.9337 2.75395C11.184 2.71839 11.4399 2.7 11.7 2.7C14.6823 2.7 17.1 5.11766 17.1 8.1C17.1 11.0823 14.6823 13.5 11.7 13.5C8.71766 13.5 6.3 11.0823 6.3 8.1C6.3 6.54239 6.95948 5.1388 8.01445 4.15324C4.45589 6.44976 2.1 10.4498 2.1 15C2.1 17.605 2.87213 20.0296 4.2 22.0575ZM21.6 18C21.0598 18 20.6218 17.562 20.6218 17.0217V14.4783H18.0783C17.538 14.4783 17.1 14.0403 17.1 13.5C17.1 12.9597 17.538 12.5217 18.0783 12.5217H20.6218V9.97826C20.6218 9.43798 21.0598 9 21.6 9C22.1403 9 22.5783 9.43798 22.5783 9.97826V12.5217H25.1217C25.662 12.5217 26.1 12.9597 26.1 13.5C26.1 14.0403 25.662 14.4783 25.1217 14.4783H22.5783V17.0217C22.5783 17.562 22.1403 18 21.6 18Z" />
</g>
</svg>
