<svg aria-label="follow.svg" class="a4e icon" width="29" height="30" viewBox="0 0 29 30" fill="none" xmlns="http://www.w3.org/2000/svg">
<!-- DO NOT REMOVE | copyright 2023 by apps4everyone.tech under MIT license -->
<g fill="currentColor">
<circle cx="9.1464" cy="6.58537" r="6.58537" />
<path d="M0 22.6829C0 17.6316 4.09496 13.5366 9.14634 13.5366V13.5366C14.1977 13.5366 18.2927 17.6315 18.2927 22.6829V27.2561C18.2927 28.7715 17.0642 30 15.5488 30H2.7439C1.22849 30 0 28.7715 0 27.2561V22.6829Z" />
<path fill-rule="evenodd" clip-rule="evenodd" d="M21.4897 16.368C21.4897 17.0269 22.0239 17.561 22.6827 17.561C23.3416 17.561 23.8757 17.0269 23.8757 16.368V13.2662H26.9774C27.6363 13.2662 28.1704 12.7321 28.1704 12.0732C28.1704 11.4143 27.6363 10.8802 26.9774 10.8802H23.8757V7.77839C23.8757 7.11951 23.3416 6.58539 22.6827 6.58539C22.0239 6.58539 21.4897 7.11951 21.4897 7.77839V10.8802H18.3878C17.7289 10.8802 17.1948 11.4143 17.1948 12.0732C17.1948 12.7321 17.7289 13.2662 18.3878 13.2662H21.4897V16.368Z" />
</g>
</svg>
