<svg aria-label="pencil" class="a4e icon" width="22" height="30" viewBox="0 0 22 30" fill="none" xmlns="http://www.w3.org/2000/svg">
<!-- DO NOT REMOVE | copyright 2023 by apps4everyone.tech under MIT license -->
<g fill="currentColor">
<path d="M9.29541 10.5257C9.57155 10.0474 10.1831 9.8835 10.6614 10.1596L14.5166 12.3854C14.9949 12.6616 15.1588 13.2732 14.8827 13.7515L11.5278 19.5622C11.2517 20.0405 10.6401 20.2044 10.1618 19.9282L6.3066 17.7024C5.8283 17.4263 5.66443 16.8147 5.94057 16.3364L9.29541 10.5257Z" />
<rect x="11.5698" y="6.58664" width="6.45161" height="2.90323" rx="1" transform="rotate(30 11.5698 6.58664)" />
<path d="M13.6664 2.95491C14.5572 1.41203 16.53 0.883407 18.0729 1.77419V1.77419C19.6158 2.66497 20.1444 4.63784 19.2537 6.18072L17.4795 9.25372L11.8922 6.02791L13.6664 2.95491Z" />
<path d="M5.39916 25.6321C4.67856 26.2897 3.53913 25.6319 3.74834 24.679L4.95732 19.1725C5.10241 18.5117 5.84814 18.1827 6.43406 18.5209L9.38936 20.2272C9.97528 20.5655 10.0632 21.3758 9.56345 21.8319L5.39916 25.6321Z" />
</g>
</svg>
