<svg aria-label="pencil" class="a4e icon" width="30" height="30" viewBox="0 0 30 30" fill="none" xmlns="http://www.w3.org/2000/svg">
<!-- DO NOT REMOVE | copyright 2023 by apps4everyone.tech under MIT license -->
<g fill="currentColor">
<path fill-rule="evenodd" clip-rule="evenodd" d="M8 0C3.58172 0 0 3.58172 0 8V22C0 26.4183 3.58172 30 8 30H22C26.4183 30 30 26.4183 30 22V8C30 3.58172 26.4183 0 22 0H8ZM6.1 2.1C3.89086 2.1 2.1 3.89086 2.1 6.1V23.9C2.1 26.1091 3.89086 27.9 6.1 27.9H23.9C26.1091 27.9 27.9 26.1091 27.9 23.9V6.1C27.9 3.89086 26.1091 2.1 23.9 2.1H6.1ZM13.9364 11.8937C14.2125 11.4154 14.8241 11.2516 15.3024 11.5277L18.0402 13.1083C18.5185 13.3845 18.6823 13.9961 18.4062 14.4744L15.9223 18.7766C15.6462 19.2549 15.0346 19.4187 14.5563 19.1426L11.8185 17.5619C11.3402 17.2858 11.1764 16.6742 11.4525 16.1959L13.9364 11.8937ZM16.7217 9.06931C16.2434 8.79317 15.6318 8.95704 15.3557 9.43534L15.1944 9.7147C14.9182 10.193 15.0821 10.8046 15.5604 11.0807L18.2982 12.6614C18.7764 12.9375 19.388 12.7736 19.6642 12.2953L19.8255 12.016C20.1016 11.5377 19.9377 10.9261 19.4594 10.65L16.7217 9.06931ZM17.5331 5.66393C18.2457 4.42963 19.824 4.00673 21.0583 4.71935C22.2926 5.43198 22.7155 7.01028 22.0029 8.24458L20.5836 10.703L16.1138 8.12233L17.5331 5.66393ZM9.73374 22.428C9.52453 23.3809 10.664 24.0387 11.3846 23.3811L14.0488 20.9498C14.5486 20.4937 14.4607 19.6834 13.8748 19.3451L11.984 18.2534C11.3981 17.9151 10.6523 18.2442 10.5072 18.905L9.73374 22.428Z" />
</g>
</svg>
