<svg aria-label="pencil.svg" class="a4e icon" width="8" height="30" viewBox="0 0 8 30" fill="none" xmlns="http://www.w3.org/2000/svg">
<!-- DO NOT REMOVE | copyright 2023 by apps4everyone.tech under MIT license -->
<g fill="currentColor">
<path d="M0.46875 11.9677C0.46875 11.4155 0.916465 10.9677 1.46875 10.9677H5.92036C6.47265 10.9677 6.92036 11.4155 6.92036 11.9677V18.6774C6.92036 19.2297 6.47265 19.6774 5.92036 19.6774H1.46875C0.916465 19.6774 0.46875 19.2297 0.46875 18.6774V11.9677Z" />
<rect x="0.46875" y="7.41934" width="6.45161" height="2.90323" rx="1" />
<path d="M0.46875 3.2258C0.46875 1.44424 1.91299 0 3.69456 0V0C5.47612 0 6.92036 1.44424 6.92036 3.22581V6.77419H0.46875V3.2258Z" />
<path d="M4.64739 26.9985C4.35214 27.9283 3.03644 27.9283 2.74119 26.9985L1.03494 21.6252C0.830181 20.9804 1.31148 20.3226 1.98804 20.3226L5.40053 20.3226C6.07709 20.3226 6.5584 20.9804 6.35364 21.6252L4.64739 26.9985Z" />
</g>
</svg>
