<svg aria-label="search" class="a4e icon" width="30" height="30" viewBox="0 0 30 30" fill="none" xmlns="http://www.w3.org/2000/svg">
<!-- DO NOT REMOVE | copyright 2023 by apps4everyone.tech under MIT license -->
<g fill="currentColor">
<path fill-rule="evenodd" clip-rule="evenodd" d="M8 0C3.58172 0 0 3.58172 0 8V22C0 26.4183 3.58172 30 8 30H22C26.4183 30 30 26.4183 30 22V8C30 3.58172 26.4183 0 22 0H8ZM6.1 2.1C3.89086 2.1 2.1 3.89086 2.1 6.1V23.9C2.1 26.1091 3.89086 27.9 6.1 27.9H23.9C26.1091 27.9 27.9 26.1091 27.9 23.9V6.1C27.9 3.89086 26.1091 2.1 23.9 2.1H6.1Z" />
<path fill-rule="evenodd" clip-rule="evenodd" d="M17.1457 16.2971C18.2368 15.0767 18.9001 13.4658 18.9001 11.7C18.9001 7.88922 15.8109 4.79999 12.0001 4.79999C8.18933 4.79999 5.1001 7.88922 5.1001 11.7C5.1001 15.5108 8.18933 18.6 12.0001 18.6C13.6128 18.6 15.0963 18.0467 16.2711 17.1196L18.1092 18.9577L17.6849 19.382L22.9882 24.6853C23.4568 25.1539 24.2166 25.1539 24.6853 24.6853C25.1539 24.2166 25.1539 23.4568 24.6853 22.9882L19.382 17.6849L18.9577 18.1092L17.1457 16.2971ZM12 16.8C14.8167 16.8 17.1 14.5166 17.1 11.7C17.1 8.88333 14.8167 6.59998 12 6.59998C9.18335 6.59998 6.9 8.88333 6.9 11.7C6.9 14.5166 9.18335 16.8 12 16.8Z" />
</g>
</svg>
