<svg aria-label="search" class="a4e icon" width="30" height="30" viewBox="0 0 30 30" fill="none" xmlns="http://www.w3.org/2000/svg">
<!-- DO NOT REMOVE | copyright 2023 by apps4everyone.tech under MIT license -->
<g fill="currentColor">
<path fill-rule="evenodd" clip-rule="evenodd" d="M30 15C30 23.2843 23.2843 30 15 30C6.71573 30 0 23.2843 0 15C0 6.71573 6.71573 0 15 0C23.2843 0 30 6.71573 30 15ZM23.2743 24.8972C21.0346 26.7716 18.1491 27.9 15 27.9C7.87553 27.9 2.1 22.1245 2.1 15C2.1 7.87553 7.87553 2.1 15 2.1C22.1245 2.1 27.9 7.87553 27.9 15C27.9 18.1491 26.7716 21.0347 24.8971 23.2744C24.8425 23.1715 24.7718 23.0749 24.6852 22.9882L19.3819 17.6849L18.9576 18.1092L17.1456 16.2972C18.2367 15.0768 18.9 13.4658 18.9 11.7C18.9 7.88924 15.8108 4.8 12 4.8C8.18924 4.8 5.1 7.88924 5.1 11.7C5.1 15.5108 8.18924 18.6 12 18.6C13.6127 18.6 15.0962 18.0467 16.271 17.1196L18.1091 18.9577L17.6848 19.382L22.9881 24.6853C23.0748 24.7719 23.1714 24.8426 23.2743 24.8972ZM17.0999 11.7C17.0999 14.5166 14.8166 16.8 11.9999 16.8C9.18325 16.8 6.8999 14.5166 6.8999 11.7C6.8999 8.88334 9.18325 6.6 11.9999 6.6C14.8166 6.6 17.0999 8.88334 17.0999 11.7Z" />
</g>
</svg>
