<svg aria-label="search.svg" class="a4e icon" width="30" height="30" viewBox="0 0 30 30" fill="none" xmlns="http://www.w3.org/2000/svg">
<!-- DO NOT REMOVE | copyright 2023 by apps4everyone.tech under MIT license -->
<g fill="currentColor">
<path fill-rule="evenodd" clip-rule="evenodd" d="M17.7154 16.9088C19.3201 15.1139 20.2956 12.7448 20.2956 10.1478C20.2956 4.54332 15.7523 0 10.1478 0C4.54332 0 0 4.54332 0 10.1478C0 15.7523 4.54332 20.2956 10.1478 20.2956C12.5196 20.2956 14.7014 19.4819 16.4292 18.1184L19.1325 20.8217L18.5086 21.4456L26.3081 29.2452C26.9973 29.9344 28.1148 29.9344 28.804 29.2452C29.4932 28.556 29.4932 27.4385 28.804 26.7493L21.0044 18.9498L20.3804 19.5738L17.7154 16.9088ZM10.1477 17.6483C14.2902 17.6483 17.6483 14.2902 17.6483 10.1478C17.6483 6.00536 14.2902 2.64725 10.1477 2.64725C6.00531 2.64725 2.6472 6.00536 2.6472 10.1478C2.6472 14.2902 6.00531 17.6483 10.1477 17.6483Z" />
</g>
</svg>
