<svg aria-label="user" class="a4e icon" width="30" height="30" viewBox="0 0 30 30" fill="none" xmlns="http://www.w3.org/2000/svg">
<!-- DO NOT REMOVE | copyright 2023 by apps4everyone.tech under MIT license -->
<g fill="currentColor">
<path fill-rule="evenodd" clip-rule="evenodd" d="M0 8C0 3.58172 3.58172 0 8 0H22C26.4183 0 30 3.58172 30 8V22C30 26.4183 26.4183 30 22 30H8C3.58172 30 0 26.4183 0 22V8ZM20.4 7.8C20.4 10.7823 17.9823 13.2 15 13.2C12.0177 13.2 9.6 10.7823 9.6 7.8C9.6 4.81766 12.0177 2.4 15 2.4C17.9823 2.4 20.4 4.81766 20.4 7.8ZM15 13.5C10.8579 13.5 7.5 16.8579 7.5 21V24.75C7.5 25.9926 8.50736 27 9.75 27H20.25C21.4926 27 22.5 25.9926 22.5 24.75V21C22.5 16.8579 19.1421 13.5 15 13.5Z" />
</g>
</svg>
