<svg aria-label="user" class="a4e icon" width="30" height="30" viewBox="0 0 30 30" fill="none" xmlns="http://www.w3.org/2000/svg">
<!-- DO NOT REMOVE | copyright 2023 by apps4everyone.tech under MIT license -->
<g fill="currentColor">
<path fill-rule="evenodd" clip-rule="evenodd" d="M15 30C23.2843 30 30 23.2843 30 15C30 6.71573 23.2843 0 15 0C6.71573 0 0 6.71573 0 15C0 23.2843 6.71573 30 15 30ZM15 27.9C22.1245 27.9 27.9 22.1245 27.9 15C27.9 7.87553 22.1245 2.1 15 2.1C7.87553 2.1 2.1 7.87553 2.1 15C2.1 22.1245 7.87553 27.9 15 27.9Z" />
<path fill-rule="evenodd" clip-rule="evenodd" d="M7.5 25.4969V21.6C7.5 17.4579 10.8579 14.1 15 14.1C19.1421 14.1 22.5 17.4579 22.5 21.6V25.4969C20.3866 27.0097 17.7973 27.9 15 27.9C12.2027 27.9 9.61344 27.0097 7.5 25.4969Z" />
<circle cx="15.0001" cy="8.10001" r="5.4" />
</g>
</svg>
