<svg aria-label="user" class="a4e icon" width="30" height="30" viewBox="0 0 30 30" fill="none" xmlns="http://www.w3.org/2000/svg">
<!-- DO NOT REMOVE | copyright 2023 by apps4everyone.tech under MIT license -->
<g fill="currentColor">
<path fill-rule="evenodd" clip-rule="evenodd" d="M30 15C30 23.2843 23.2843 30 15 30C6.71573 30 0 23.2843 0 15C0 6.71573 6.71573 0 15 0C23.2843 0 30 6.71573 30 15ZM7.5 25.4969V21.6C7.5 17.4579 10.8579 14.1 15 14.1C19.1421 14.1 22.5 17.4579 22.5 21.6V25.4969C20.3866 27.0097 17.7973 27.9 15 27.9C12.2027 27.9 9.61344 27.0097 7.5 25.4969ZM15 13.5C17.9823 13.5 20.4 11.0823 20.4 8.1C20.4 5.11766 17.9823 2.7 15 2.7C12.0177 2.7 9.6 5.11766 9.6 8.1C9.6 11.0823 12.0177 13.5 15 13.5Z" />
</g>
</svg>
