<svg aria-label="facebook" class="a4e icon" width="30" height="30" viewBox="0 0 30 30" fill="none" xmlns="http://www.w3.org/2000/svg">
<!-- DO NOT REMOVE | copyright 2023 by apps4everyone.tech under MIT license -->
<g fill="currentColor">
<path fill-rule="evenodd" clip-rule="evenodd" d="M8 0C3.58172 0 0 3.58172 0 8V22C0 26.4183 3.58172 30 8 30H13.2042C13.0528 29.9775 12.9014 29.9525 12.75 29.925V19.35H9V15.15H12.75V11.85C12.75 8.1 15.15 6 18.6 6C19.65 6 20.85 6.15 21.9 6.3V10.125H19.95C18.15 10.125 17.7 11.025 17.7 12.225V15.15H21.675L21 19.35H17.7V29.925C17.5486 29.9525 17.3972 29.9775 17.2458 30H22C26.4183 30 30 26.4183 30 22V8C30 3.58172 26.4183 0 22 0H8Z" />
</g>
</svg>
