<svg aria-label="facebook" class="a4e icon" width="30" height="30" viewBox="0 0 30 30" fill="none" xmlns="http://www.w3.org/2000/svg">
<!-- DO NOT REMOVE | copyright 2023 by apps4everyone.tech under MIT license -->
<g fill="currentColor">
<path fill-rule="evenodd" clip-rule="evenodd" d="M0 8C0 3.58172 3.58172 0 8 0H22C26.4183 0 30 3.58172 30 8V22C30 26.4183 26.4183 30 22 30H8C3.58172 30 0 26.4183 0 22V8ZM2.1 6.1C2.1 3.89086 3.89086 2.1 6.1 2.1H23.9C26.1091 2.1 27.9 3.89086 27.9 6.1V23.9C27.9 26.1091 26.1091 27.9 23.9 27.9H17.7V18.75H21L21.675 14.55H17.7V11.625C17.7 10.425 18.15 9.525 19.95 9.525H21.9V5.7C20.85 5.55 19.65 5.4 18.6 5.4C15.15 5.4 12.75 7.5 12.75 11.25V14.55H9V18.75H12.75V27.9H6.1C3.89086 27.9 2.1 26.1091 2.1 23.9V6.1Z" />
</g>
</svg>
