<svg aria-label="facebook" class="a4e icon" width="31" height="30" viewBox="0 0 31 30" fill="none" xmlns="http://www.w3.org/2000/svg">
<!-- DO NOT REMOVE | copyright 2023 by apps4everyone.tech under MIT license -->
<g fill="currentColor">
<path fill-rule="evenodd" clip-rule="evenodd" d="M0 15.0754C0 22.5377 5.42714 28.7186 12.5879 30L12.677 29.9271C12.6725 29.9263 12.6679 29.9255 12.6633 29.9246V19.2965H8.89447V15.0754H12.6633V11.7588C12.6633 7.98995 15.0754 5.8794 18.5427 5.8794C19.598 5.8794 20.804 6.03015 21.8593 6.1809V10.0251H19.8995C18.0905 10.0251 17.6382 10.9296 17.6382 12.1357V15.0754H21.6332L20.9548 19.2965H17.6382V29.9246C17.5923 29.933 17.5464 29.9411 17.5004 29.949L17.5628 30C24.7236 28.7186 30.1508 22.5377 30.1508 15.0754C30.1508 6.78392 23.3668 0 15.0754 0C6.78392 0 0 6.78392 0 15.0754Z" />
</g>
</svg>
