<svg aria-label="facebook" class="a4e icon" width="31" height="30" viewBox="0 0 31 30" fill="none" xmlns="http://www.w3.org/2000/svg">
<!-- DO NOT REMOVE | copyright 2023 by apps4everyone.tech under MIT license -->
<g fill="currentColor">
<path fill-rule="evenodd" clip-rule="evenodd" d="M30.1509 15C30.1509 23.2843 23.4352 30 15.1509 30C6.86661 30 0.150879 23.2843 0.150879 15C0.150879 6.71573 6.86661 0 15.1509 0C23.4352 0 30.1509 6.71573 30.1509 15ZM12.6009 27.648V19.05H8.85088V14.85H12.6009V11.55C12.6009 7.8 15.0009 5.7 18.4509 5.7C19.5009 5.7 20.7009 5.85 21.7509 6V9.825H19.8009C18.0009 9.825 17.5509 10.725 17.5509 11.925V14.85H21.5259L20.8509 19.05H17.5509V27.6772C23.5285 26.5524 28.0509 21.3043 28.0509 15C28.0509 7.87553 22.2754 2.1 15.1509 2.1C8.02641 2.1 2.25088 7.87553 2.25088 15C2.25088 21.2515 6.69776 26.4644 12.6009 27.648Z" />
</g>
</svg>
