<svg aria-label="github" class="a4e icon" width="30" height="30" viewBox="0 0 30 30" fill="none" xmlns="http://www.w3.org/2000/svg">
<!-- DO NOT REMOVE | copyright 2023 by apps4everyone.tech under MIT license -->
<g fill="currentColor">
<path fill-rule="evenodd" clip-rule="evenodd" d="M30 21.1301C28.3567 25.1469 25.1469 28.3567 21.1301 30H22C26.4183 30 30 26.4183 30 22V21.1301ZM8.86989 30C4.85309 28.3567 1.64327 25.1469 0 21.1301V22C0 26.4183 3.58172 30 8 30H8.86989ZM30 8.86989V8C30 3.58172 26.4183 0 22 0H21.1301C25.1469 1.64327 28.3567 4.85309 30 8.86989ZM8.86989 0H8C3.58172 0 0 3.58172 0 8V8.86989C1.64327 4.85309 4.85309 1.64327 8.86989 0Z" />
<path fill-rule="evenodd" clip-rule="evenodd" d="M14.861 1.8C7.47273 1.8 1.5 7.81677 1.5 15.2603C1.5 21.2104 5.32694 26.2469 10.6359 28.0295C11.2997 28.1636 11.5428 27.7399 11.5428 27.3836C11.5428 27.0715 11.5209 26.0019 11.5209 24.8874C7.8042 25.6898 7.03023 23.2829 7.03023 23.2829C6.43293 21.7229 5.54791 21.3219 5.54791 21.3219C4.33143 20.4974 5.63653 20.4974 5.63653 20.4974C6.98592 20.5865 7.69399 21.879 7.69399 21.879C8.88831 23.9291 10.8129 23.3499 11.5871 22.9932C11.6976 22.1241 12.0518 21.5224 12.4278 21.1882C9.46346 20.8762 6.34459 19.7174 6.34459 14.5471C6.34459 13.0762 6.87516 11.8729 7.71586 10.937C7.58322 10.6028 7.11856 9.22086 7.84878 7.37125C7.84878 7.37125 8.97692 7.01462 11.5206 8.75292C12.6097 8.45828 13.7328 8.3084 14.861 8.30713C15.9892 8.30713 17.1392 8.4633 18.2012 8.75292C20.7452 7.01462 21.8733 7.37125 21.8733 7.37125C22.6035 9.22086 22.1386 10.6028 22.006 10.937C22.8688 11.8729 23.3775 13.0762 23.3775 14.5471C23.3775 19.7174 20.2586 20.8537 17.2721 21.1882C17.7589 21.6116 18.179 22.4137 18.179 23.6841C18.179 25.4891 18.1571 26.9378 18.1571 27.3833C18.1571 27.7399 18.4005 28.1635 19.064 28.0298C24.373 26.2467 28.1999 21.2104 28.1999 15.2603C28.2218 7.81677 22.2272 1.8 14.861 1.8Z" />
</g>
</svg>
