<svg aria-label="github" class="a4e icon" width="31" height="30" viewBox="0 0 31 30" fill="none" xmlns="http://www.w3.org/2000/svg">
<!-- DO NOT REMOVE | copyright 2023 by apps4everyone.tech under MIT license -->
<g fill="currentColor">
<path fill-rule="evenodd" clip-rule="evenodd" d="M15.2668 0C6.82466 0 0 6.87497 0 15.3802C0 22.179 4.37279 27.9339 10.439 29.9708C11.1975 30.1239 11.4753 29.6399 11.4753 29.2327C11.4753 28.8761 11.4503 27.6539 11.4503 26.3805C7.20341 27.2974 6.31904 24.5471 6.31904 24.5471C5.63654 22.7646 4.62529 22.3065 4.62529 22.3065C3.2353 21.3643 4.72654 21.3643 4.72654 21.3643C6.26841 21.4662 7.07747 22.943 7.07747 22.943C8.44215 25.2855 10.6412 24.6236 11.5259 24.2161C11.6521 23.223 12.0568 22.5355 12.4865 22.1537C9.09934 21.7971 5.5356 20.473 5.5356 14.5653C5.5356 12.8846 6.14185 11.5096 7.10247 10.4403C6.95091 10.0584 6.41997 8.47934 7.25434 6.36591C7.25434 6.36591 8.5434 5.95841 11.45 7.94466C12.6943 7.60799 13.9777 7.43672 15.2668 7.43528C16.5559 7.43528 17.8699 7.61372 19.0834 7.94466C21.9902 5.95841 23.2793 6.36591 23.2793 6.36591C24.1136 8.47934 23.5824 10.0584 23.4308 10.4403C24.4168 11.5096 24.998 12.8846 24.998 14.5653C24.998 20.473 21.4343 21.7715 18.0218 22.1537C18.578 22.6374 19.058 23.554 19.058 25.0055C19.058 27.068 19.033 28.7233 19.033 29.2324C19.033 29.6399 19.3112 30.1239 20.0693 29.9711C26.1355 27.9336 30.5083 22.179 30.5083 15.3802C30.5333 6.87497 23.6837 0 15.2668 0Z" />
</g>
</svg>
