<svg aria-label="github" class="a4e icon" width="30" height="30" viewBox="0 0 30 30" fill="none" xmlns="http://www.w3.org/2000/svg">
<!-- DO NOT REMOVE | copyright 2023 by apps4everyone.tech under MIT license -->
<g fill="currentColor">
<path fill-rule="evenodd" clip-rule="evenodd" d="M8 0C3.58172 0 0 3.58172 0 8V22C0 26.4183 3.58172 30 8 30H11.9552C11.8882 29.9834 11.8214 29.9664 11.7547 29.949C11.7688 29.8842 11.7755 29.8186 11.7755 29.7549C11.7755 29.6294 11.7725 29.3983 11.7685 29.096C11.7609 28.5248 11.7501 27.6995 11.7501 26.8518C7.42733 27.7851 6.52716 24.9856 6.52716 24.9856C5.83247 23.1713 4.80316 22.705 4.80316 22.705C3.38833 21.746 4.90622 21.746 4.90622 21.746C6.47563 21.8497 7.29915 23.3529 7.29915 23.3529C8.68821 25.7373 10.9265 25.0636 11.827 24.6488C11.9555 23.6379 12.3675 22.9381 12.8048 22.5494C9.35714 22.1865 5.72973 20.8388 5.72973 14.8255C5.72973 13.1148 6.34681 11.7153 7.32459 10.6268C7.17032 10.2381 6.6299 8.63083 7.47918 6.47964C7.47918 6.47964 8.79127 6.06486 11.7497 8.08659C13.0164 7.74391 14.3226 7.56958 15.6348 7.56811C16.9469 7.56811 18.2844 7.74974 19.5195 8.08659C22.4783 6.06486 23.7904 6.47964 23.7904 6.47964C24.6397 8.63083 24.0989 10.2381 23.9447 10.6268C24.9482 11.7153 25.5399 13.1148 25.5399 14.8255C25.5399 20.8388 21.9124 22.1604 18.439 22.5494C19.0052 23.0418 19.4938 23.9748 19.4938 25.4523C19.4938 26.8548 19.4824 28.0723 19.4749 28.8806V28.8806V28.8808C19.4711 29.2822 19.4683 29.5827 19.4683 29.7546C19.4683 29.8184 19.475 29.8841 19.4892 29.9489C19.4225 29.9664 19.3556 29.9834 19.2886 30H22C26.4183 30 30 26.4183 30 22V8C30 3.58172 26.4183 0 22 0H15.6283C15.1201 0.000209303 14.6177 0.0248929 14.1221 0.0729476C14.6155 0.0246957 15.1158 0 15.6219 0H8Z" />
</g>
</svg>
