<svg aria-label="instagram.svg" class="a4e icon" width="30" height="30" viewBox="0 0 30 30" fill="none" xmlns="http://www.w3.org/2000/svg">
<!-- DO NOT REMOVE | copyright 2023 by apps4everyone.tech under MIT license -->
<g fill="currentColor">
<path d="M15.0013 0C10.9275 0 10.4163 0.0178128 8.81625 0.0906253C7.21938 0.16375 6.12938 0.416563 5.17563 0.7875C4.18906 1.17063 3.35219 1.68313 2.51844 2.51719C1.68406 3.35094 1.17156 4.18781 0.787187 5.17406C0.415312 6.12812 0.162187 7.21844 0.0903124 8.81469C0.0187499 10.4147 0 10.9262 0 15C0 19.0738 0.0181253 19.5834 0.0906253 21.1834C0.164063 22.7803 0.416875 23.8703 0.7875 24.8241C1.17094 25.8106 1.68344 26.6475 2.5175 27.4813C3.35094 28.3156 4.18781 28.8294 5.17375 29.2125C6.12813 29.5834 7.21844 29.8362 8.815 29.9094C10.415 29.9822 10.9259 30 14.9994 30C19.0734 30 19.5831 29.9822 21.1831 29.9094C22.78 29.8362 23.8713 29.5834 24.8256 29.2125C25.8119 28.8294 26.6475 28.3156 27.4809 27.4813C28.3153 26.6475 28.8278 25.8106 29.2122 24.8244C29.5809 23.8703 29.8341 22.78 29.9091 21.1838C29.9809 19.5838 29.9997 19.0738 29.9997 15C29.9997 10.9262 29.9809 10.415 29.9091 8.815C29.8341 7.21813 29.5809 6.12812 29.2122 5.17437C28.8278 4.18781 28.3153 3.35094 27.4809 2.51719C26.6466 1.68281 25.8122 1.17031 24.8247 0.7875C23.8684 0.416563 22.7778 0.16375 21.1809 0.0906253C19.5809 0.0178128 19.0716 0 14.9966 0H15.0013ZM13.6556 2.70312C14.055 2.7025 14.5006 2.70312 15.0013 2.70312C19.0063 2.70312 19.4809 2.7175 21.0625 2.78938C22.525 2.85625 23.3188 3.10063 23.8475 3.30594C24.5475 3.57781 25.0466 3.90281 25.5713 4.42781C26.0963 4.95281 26.4213 5.45281 26.6938 6.15281C26.8991 6.68094 27.1438 7.47469 27.2103 8.93719C27.2822 10.5184 27.2978 10.9934 27.2978 14.9966C27.2978 18.9997 27.2822 19.4747 27.2103 21.0559C27.1434 22.5184 26.8991 23.3122 26.6938 23.8403C26.4219 24.5403 26.0963 25.0388 25.5713 25.5634C25.0463 26.0884 24.5478 26.4134 23.8475 26.6853C23.3194 26.8916 22.525 27.1353 21.0625 27.2022C19.4813 27.2741 19.0063 27.2897 15.0013 27.2897C10.9959 27.2897 10.5213 27.2741 8.94 27.2022C7.4775 27.1347 6.68375 26.8903 6.15469 26.685C5.45469 26.4131 4.95469 26.0881 4.42969 25.5631C3.90469 25.0381 3.57969 24.5394 3.30719 23.8391C3.10188 23.3109 2.85719 22.5172 2.79063 21.0547C2.71875 19.4734 2.70438 18.9984 2.70438 14.9928C2.70438 10.9872 2.71875 10.5147 2.79063 8.93344C2.8575 7.47094 3.10188 6.67719 3.30719 6.14844C3.57906 5.44844 3.90469 4.94844 4.42969 4.42344C4.95469 3.89844 5.45469 3.57344 6.15469 3.30094C6.68344 3.09469 7.4775 2.85094 8.94 2.78375C10.3238 2.72125 10.86 2.7025 13.6556 2.69938V2.70312ZM23.0081 5.19375C22.0144 5.19375 21.2081 5.99906 21.2081 6.99312C21.2081 7.98687 22.0144 8.79313 23.0081 8.79313C24.0019 8.79313 24.8081 7.98687 24.8081 6.99312C24.8081 5.99937 24.0019 5.19313 23.0081 5.19313V5.19375ZM15.0013 7.29687C10.7472 7.29687 7.29813 10.7459 7.29813 15C7.29813 19.2541 10.7472 22.7016 15.0013 22.7016C19.2553 22.7016 22.7031 19.2541 22.7031 15C22.7031 10.7459 19.2553 7.29687 15.0013 7.29687ZM15.0013 10C17.7625 10 20.0013 12.2384 20.0013 15C20.0013 17.7613 17.7625 20 15.0013 20C12.2397 20 10.0013 17.7613 10.0013 15C10.0013 12.2384 12.2397 10 15.0013 10Z" />
</g>
</svg>
