<svg aria-label="instagram" class="a4e icon" width="30" height="30" viewBox="0 0 30 30" fill="none" xmlns="http://www.w3.org/2000/svg">
<!-- DO NOT REMOVE | copyright 2023 by apps4everyone.tech under MIT license -->
<g fill="currentColor">
<path fill-rule="evenodd" clip-rule="evenodd" d="M8 0C3.58172 0 0 3.58172 0 8V22C0 26.4183 3.58172 30 8 30H22C26.4183 30 30 26.4183 30 22V8C30 3.58172 26.4183 0 22 0H8ZM6.1 2.1C3.89086 2.1 2.1 3.89086 2.1 6.1V23.9C2.1 26.1091 3.89086 27.9 6.1 27.9H23.9C26.1091 27.9 27.9 26.1091 27.9 23.9V6.1C27.9 3.89086 26.1091 2.1 23.9 2.1H6.1Z" />
<path d="M15.0011 3C11.7421 3 11.3331 3.01425 10.0531 3.0725C8.77556 3.131 7.90355 3.33325 7.14054 3.63001C6.35128 3.93651 5.68178 4.34651 5.01477 5.01377C4.34726 5.68078 3.93726 6.35028 3.62976 7.13929C3.33225 7.90255 3.12975 8.77481 3.07225 10.0518C3.015 11.3318 3 11.7411 3 15.0001C3 18.2592 3.0145 18.6669 3.0725 19.9469C3.13125 21.2244 3.3335 22.0964 3.63001 22.8595C3.93676 23.6487 4.34676 24.3182 5.01402 24.9852C5.68078 25.6527 6.35028 26.0637 7.13904 26.3702C7.90255 26.667 8.77481 26.8692 10.0521 26.9277C11.3321 26.986 11.7408 27.0002 14.9996 27.0002C18.2589 27.0002 18.6667 26.986 19.9467 26.9277C21.2242 26.8692 22.0972 26.667 22.8607 26.3702C23.6497 26.0637 24.3182 25.6527 24.985 24.9852C25.6525 24.3182 26.0625 23.6487 26.37 22.8597C26.665 22.0964 26.8675 21.2242 26.9275 19.9472C26.985 18.6672 27 18.2592 27 15.0001C27 11.7411 26.985 11.3321 26.9275 10.0521C26.8675 8.77456 26.665 7.90255 26.37 7.13954C26.0625 6.35028 25.6525 5.68078 24.985 5.01377C24.3175 4.34626 23.65 3.93626 22.86 3.63001C22.0949 3.33325 21.2224 3.131 19.9449 3.0725C18.6649 3.01425 18.2574 3 14.9974 3H15.0011ZM13.9246 5.16252C14.2441 5.16202 14.6006 5.16252 15.0011 5.16252C18.2052 5.16252 18.5849 5.17402 19.8502 5.23152C21.0202 5.28502 21.6552 5.48053 22.0782 5.64478C22.6382 5.86228 23.0375 6.12228 23.4572 6.54229C23.8772 6.96229 24.1372 7.3623 24.3552 7.9223C24.5195 8.34481 24.7152 8.97981 24.7685 10.1498C24.826 11.4148 24.8385 11.7948 24.8385 14.9974C24.8385 18.1999 24.826 18.5799 24.7685 19.8449C24.715 21.0149 24.5195 21.6499 24.3552 22.0724C24.1377 22.6325 23.8772 23.0312 23.4572 23.451C23.0372 23.871 22.6385 24.131 22.0782 24.3485C21.6557 24.5135 21.0202 24.7085 19.8502 24.762C18.5852 24.8195 18.2052 24.832 15.0011 24.832C11.7968 24.832 11.4171 24.8195 10.1521 24.762C8.98206 24.708 8.34706 24.5125 7.9238 24.3482C7.3638 24.1307 6.96379 23.8707 6.54379 23.4507C6.12378 23.0307 5.86378 22.6317 5.64578 22.0714C5.48153 21.6489 5.28577 21.0139 5.23252 19.8439C5.17502 18.5789 5.16352 18.1989 5.16352 14.9944C5.16352 11.7898 5.17502 11.4118 5.23252 10.1468C5.28602 8.97681 5.48153 8.34181 5.64578 7.9188C5.86328 7.3588 6.12378 6.95879 6.54379 6.53879C6.96379 6.11878 7.3638 5.85878 7.9238 5.64078C8.34681 5.47578 8.98206 5.28077 10.1521 5.22702C11.2591 5.17702 11.6881 5.16202 13.9246 5.15952V5.16252ZM21.4067 7.15504C20.6117 7.15504 19.9667 7.7993 19.9667 8.59456C19.9667 9.38957 20.6117 10.0346 21.4067 10.0346C22.2017 10.0346 22.8467 9.38957 22.8467 8.59456C22.8467 7.79955 22.2017 7.15454 21.4067 7.15454V7.15504ZM15.0011 8.83756C11.5978 8.83756 8.83856 11.5968 8.83856 15.0001C8.83856 18.4034 11.5978 21.1614 15.0011 21.1614C18.4044 21.1614 21.1627 18.4034 21.1627 15.0001C21.1627 11.5968 18.4044 8.83756 15.0011 8.83756ZM15.0011 11.0001C17.2101 11.0001 19.0012 12.7909 19.0012 15.0001C19.0012 17.2091 17.2101 19.0002 15.0011 19.0002C12.7919 19.0002 11.0011 17.2091 11.0011 15.0001C11.0011 12.7909 12.7919 11.0001 15.0011 11.0001Z" />
</g>
</svg>
