<svg aria-label="instagram" class="a4e icon" width="30" height="30" viewBox="0 0 30 30" fill="none" xmlns="http://www.w3.org/2000/svg">
<!-- DO NOT REMOVE | copyright 2023 by apps4everyone.tech under MIT license -->
<g fill="currentColor">
<path fill-rule="evenodd" clip-rule="evenodd" d="M15 30C23.2843 30 30 23.2843 30 15C30 6.71573 23.2843 0 15 0C6.71573 0 0 6.71573 0 15C0 23.2843 6.71573 30 15 30ZM11.2898 6.05438C12.2498 6.01069 12.5566 6 15.0008 6H14.998C17.4431 6 17.7487 6.01069 18.7087 6.05438C19.6668 6.09825 20.3212 6.24994 20.895 6.47251C21.4875 6.70219 21.9881 7.0097 22.4887 7.51033C22.9894 8.01058 23.2969 8.51271 23.5275 9.10466C23.7487 9.67691 23.9006 10.3309 23.9456 11.2891C23.9888 12.2491 24 12.5558 24 15.0001C24 17.4444 23.9888 17.7504 23.9456 18.7104C23.9006 19.6681 23.7487 20.3223 23.5275 20.8948C23.2969 21.4865 22.9894 21.9887 22.4887 22.4889C21.9887 22.9896 21.4873 23.2978 20.8955 23.5277C20.3229 23.7502 19.6681 23.9019 18.71 23.9458C17.75 23.9895 17.4442 24.0002 14.9997 24.0002C12.5556 24.0002 12.2491 23.9895 11.2891 23.9458C10.3311 23.9019 9.67691 23.7502 9.10428 23.5277C8.51271 23.2978 8.01058 22.9896 7.51052 22.4889C7.01007 21.9887 6.70257 21.4865 6.47251 20.8946C6.25013 20.3223 6.09844 19.6683 6.05438 18.7102C6.01088 17.7502 6 17.4444 6 15.0001C6 12.5558 6.01125 12.2489 6.05419 11.2889C6.09731 10.3311 6.24919 9.67691 6.47232 9.10447C6.70294 8.51271 7.01045 8.01058 7.51108 7.51033C8.01133 7.00989 8.51346 6.70238 9.10541 6.47251C9.67766 6.24994 10.3317 6.09825 11.2898 6.05438ZM14.7009 7.6218C14.5189 7.62172 14.3502 7.62165 14.1935 7.62189V7.61964C12.5161 7.62152 12.1943 7.63277 11.3641 7.67027C10.4865 7.71058 10.0101 7.85683 9.69285 7.98058C9.27285 8.14408 8.97284 8.33909 8.65784 8.65409C8.34284 8.96909 8.14746 9.2691 7.98433 9.6891C7.86114 10.0064 7.71452 10.4826 7.67439 11.3601C7.63127 12.3089 7.62264 12.5924 7.62264 14.9958C7.62264 17.3992 7.63127 17.6842 7.67439 18.6329C7.71433 19.5105 7.86114 19.9867 7.98433 20.3036C8.14783 20.7238 8.34284 21.023 8.65784 21.338C8.97284 21.653 9.27285 21.848 9.69285 22.0112C10.0103 22.1344 10.4865 22.281 11.3641 22.3215C12.3128 22.3646 12.5976 22.374 15.0008 22.374C17.4039 22.374 17.6889 22.3646 18.6376 22.3215C19.5151 22.2814 19.9918 22.1351 20.3086 22.0114C20.7288 21.8482 21.0279 21.6532 21.3429 21.3382C21.6579 21.0234 21.8533 20.7243 22.0164 20.3043C22.1396 19.9875 22.2862 19.5112 22.3264 18.6337C22.3695 17.6849 22.3789 17.3999 22.3789 14.998C22.3789 12.5961 22.3695 12.3111 22.3264 11.3624C22.2864 10.4849 22.1396 10.0086 22.0164 9.69173C21.8529 9.27172 21.6579 8.97172 21.3429 8.65672C21.0281 8.34171 20.7287 8.14671 20.3086 7.98358C19.9914 7.86039 19.5151 7.71377 18.6376 7.67364C17.6887 7.63052 17.4039 7.62189 15.0008 7.62189C14.897 7.62189 14.7971 7.62185 14.7009 7.6218ZM18.725 10.1959C18.725 9.59947 19.2088 9.11628 19.805 9.11628V9.11591C20.4013 9.11591 20.885 9.59966 20.885 10.1959C20.885 10.7922 20.4013 11.2759 19.805 11.2759C19.2088 11.2759 18.725 10.7922 18.725 10.1959ZM10.3789 15.0001C10.3789 12.4476 12.4484 10.3782 15.0008 10.3782C17.5533 10.3782 19.622 12.4476 19.622 15.0001C19.622 17.5526 17.5533 19.6211 15.0008 19.6211C12.4484 19.6211 10.3789 17.5526 10.3789 15.0001ZM18.0009 15.0001C18.0009 13.3431 16.6576 12.0001 15.0008 12.0001C13.3439 12.0001 12.0008 13.3431 12.0008 15.0001C12.0008 16.6569 13.3439 18.0001 15.0008 18.0001C16.6576 18.0001 18.0009 16.6569 18.0009 15.0001Z" />
</g>
</svg>
