<svg aria-label="linkedin" class="a4e icon" width="30" height="30" viewBox="0 0 30 30" fill="none" xmlns="http://www.w3.org/2000/svg">
<!-- DO NOT REMOVE | copyright 2023 by apps4everyone.tech under MIT license -->
<g fill="currentColor">
<path fill-rule="evenodd" clip-rule="evenodd" d="M15 30C23.2843 30 30 23.2843 30 15C30 6.71573 23.2843 0 15 0C6.71573 0 0 6.71573 0 15C0 23.2843 6.71573 30 15 30ZM8.20755 10.7151C9.42674 10.7151 10.4151 9.72674 10.4151 8.50755C10.4151 7.28835 9.42674 6.3 8.20755 6.3C6.98835 6.3 6 7.28835 6 8.50755C6 9.72674 6.98835 10.7151 8.20755 10.7151ZM6.3397 12.0736H10.4152V23.6208H6.3397V12.0736ZM12.1132 23.6208V12.27H16.0189V13.7723C16.7547 12.7708 18.5661 11.6023 21.283 12.27C24 12.9377 24 14.9408 24 23.6208H20.0944C20.0944 22.7103 20.129 21.8135 20.1619 20.9619C20.2919 17.5981 20.3945 14.9408 18.2264 14.9408C16.0529 14.9408 16.0529 16.0091 16.0529 20.0259C16.0529 21.0301 16.0529 22.2186 16.0189 23.6208H12.1132Z" />
</g>
</svg>
