<svg aria-label="linkedin" class="a4e icon" width="30" height="30" viewBox="0 0 30 30" fill="none" xmlns="http://www.w3.org/2000/svg">
<!-- DO NOT REMOVE | copyright 2023 by apps4everyone.tech under MIT license -->
<g fill="currentColor">
<path fill-rule="evenodd" clip-rule="evenodd" d="M15 30C23.2843 30 30 23.2843 30 15C30 6.71573 23.2843 0 15 0C6.71573 0 0 6.71573 0 15C0 23.2843 6.71573 30 15 30ZM15 27.9C22.1245 27.9 27.9 22.1245 27.9 15C27.9 7.87553 22.1245 2.1 15 2.1C7.87553 2.1 2.1 7.87553 2.1 15C2.1 22.1245 7.87553 27.9 15 27.9Z" />
<circle cx="8.20755" cy="8.50755" r="2.20755" />
<rect x="6.33984" y="12.0736" width="4.07547" height="11.5472" />
<path d="M12.1133 12.27V23.6208H16.0189C16.1888 16.61 15.5095 14.9408 18.2265 14.9408C20.9435 14.9408 20.0944 19.1139 20.0944 23.6208H24.0001C24.0001 14.9408 24.0001 12.9377 21.2831 12.27C18.5661 11.6023 16.7548 12.7708 16.0189 13.7723V12.27H12.1133Z" />
</g>
</svg>
