<svg aria-label="linkedin" class="a4e icon" width="30" height="30" viewBox="0 0 30 30" fill="none" xmlns="http://www.w3.org/2000/svg">
<!-- DO NOT REMOVE | copyright 2023 by apps4everyone.tech under MIT license -->
<g fill="currentColor">
<path fill-rule="evenodd" clip-rule="evenodd" d="M8 0C3.58172 0 0 3.58172 0 8V22C0 26.4183 3.58172 30 8 30H22C26.4183 30 30 26.4183 30 22V8C30 3.58172 26.4183 0 22 0H8ZM6.1 2.1C3.89086 2.1 2.1 3.89086 2.1 6.1V23.9C2.1 26.1091 3.89086 27.9 6.1 27.9H23.9C26.1091 27.9 27.9 26.1091 27.9 23.9V6.1C27.9 3.89086 26.1091 2.1 23.9 2.1H6.1Z" />
<circle cx="7.30261" cy="7.69737" r="2.56579" />
<rect x="5.13184" y="11.8421" width="4.73684" height="13.4211" />
<path d="M11.8423 12.0704V25.2631H16.3818C16.5791 17.1147 15.7897 15.1746 18.9475 15.1746C22.1054 15.1746 21.1186 20.0248 21.1186 25.2631H25.6581C25.6581 15.1746 25.6581 12.8464 22.5002 12.0703C19.3423 11.2943 17.237 12.6524 16.3818 13.8165V12.0704H11.8423Z" />
</g>
</svg>
