<svg aria-label="threads" class="a4e icon" width="30" height="30" viewBox="0 0 30 30" fill="none" xmlns="http://www.w3.org/2000/svg">
<!-- DO NOT REMOVE | copyright 2023 by apps4everyone.tech under MIT license -->
<g fill="currentColor">
<path fill-rule="evenodd" clip-rule="evenodd" d="M8 0C3.58172 0 0 3.58172 0 8V22C0 26.4183 3.58172 30 8 30H22C26.4183 30 30 26.4183 30 22V8C30 3.58172 26.4183 0 22 0H8ZM6.1 2.1C3.89086 2.1 2.1 3.89086 2.1 6.1V23.9C2.1 26.1091 3.89086 27.9 6.1 27.9H23.9C26.1091 27.9 27.9 26.1091 27.9 23.9V6.1C27.9 3.89086 26.1091 2.1 23.9 2.1H6.1Z" />
<path d="M20.8669 14.1235C20.7636 14.074 20.6586 14.0263 20.5522 13.9806C20.3669 10.5673 18.5018 8.61312 15.37 8.59312C15.3559 8.59304 15.3417 8.59304 15.3276 8.59304C13.4544 8.59304 11.8964 9.39261 10.9376 10.8476L12.6599 12.0291C13.3763 10.9423 14.5005 10.7106 15.3284 10.7106C15.3379 10.7106 15.3475 10.7106 15.357 10.7107C16.3882 10.7173 17.1663 11.0171 17.6699 11.6018C18.0364 12.0274 18.2816 12.6156 18.4029 13.358C17.4887 13.2026 16.4999 13.1548 15.4429 13.2154C12.4654 13.3869 10.5512 15.1235 10.6798 17.5365C10.745 18.7605 11.3548 19.8135 12.3967 20.5014C13.2776 21.0829 14.4122 21.3673 15.5913 21.3029C17.1486 21.2175 18.3702 20.6234 19.2224 19.537C19.8697 18.712 20.2791 17.6429 20.4598 16.2957C21.2019 16.7436 21.7519 17.333 22.0557 18.0415C22.5722 19.2459 22.6023 21.225 20.9874 22.8385C19.5726 24.252 17.8718 24.8635 15.3015 24.8824C12.4503 24.8613 10.294 23.9469 8.89207 22.1646C7.57924 20.4958 6.90077 18.0852 6.87545 15C6.90077 11.9147 7.57924 9.5042 8.89207 7.83534C10.294 6.05311 12.4503 5.13875 15.3015 5.11756C18.1733 5.13891 20.3672 6.05767 21.8228 7.8485C22.5366 8.7267 23.0747 9.8311 23.4294 11.1188L25.4478 10.5803C25.0178 8.99528 24.3412 7.62946 23.4204 6.49675C21.5543 4.20084 18.8251 3.02439 15.3085 3H15.2944C11.785 3.02431 9.08632 4.20522 7.27334 6.50991C5.66004 8.5608 4.82785 11.4145 4.79989 14.9916L4.7998 15L4.79989 15.0084C4.82785 18.5855 5.66004 21.4393 7.27334 23.4901C9.08632 25.7948 11.785 26.9757 15.2944 27H15.3085C18.4286 26.9784 20.6278 26.1615 22.4396 24.3514C24.8099 21.9833 24.7386 19.0149 23.9573 17.1926C23.3968 15.8859 22.3282 14.8245 20.8669 14.1235ZM15.4799 19.1884C14.1749 19.2619 12.8191 18.6761 12.7523 17.4215C12.7027 16.4913 13.4143 15.4533 15.56 15.3296C15.8057 15.3154 16.0468 15.3085 16.2837 15.3085C17.0631 15.3085 17.7922 15.3842 18.4551 15.5291C18.2078 18.6169 16.7576 19.1183 15.4799 19.1884Z" />
</g>
</svg>
