<svg aria-label="threads" class="a4e icon" width="30" height="30" viewBox="0 0 30 30" fill="none" xmlns="http://www.w3.org/2000/svg">
<!-- DO NOT REMOVE | copyright 2023 by apps4everyone.tech under MIT license -->
<g fill="currentColor">
<path fill-rule="evenodd" clip-rule="evenodd" d="M8 0C3.58172 0 0 3.58172 0 8V22C0 26.4183 3.58172 30 8 30H22C26.4183 30 30 26.4183 30 22V8C30 3.58172 26.4183 0 22 0H8ZM20.5524 13.9806C20.6588 14.0263 20.7638 14.074 20.8671 14.1235C22.3284 14.8245 23.397 15.8859 23.9575 17.1926C24.7388 19.0149 24.8101 21.9832 22.4398 24.3514C20.628 26.1615 18.4288 26.9784 15.3087 27H15.2946C11.7852 26.9757 9.08651 25.7948 7.27354 23.4901C5.66024 21.4393 4.82805 18.5855 4.80009 15.0084L4.8 15L4.80009 14.9916C4.82805 11.4145 5.66024 8.5608 7.27354 6.50991C9.08651 4.20522 11.7852 3.02431 15.2946 3H15.3087C18.8253 3.02439 21.5545 4.20084 23.4206 6.49675C24.3414 7.62946 25.018 8.99528 25.448 10.5803L23.4296 11.1188C23.0749 9.8311 22.5368 8.7267 21.823 7.8485C20.3674 6.05767 18.1735 5.13891 15.3017 5.11756C12.4505 5.13875 10.2942 6.05311 8.89226 7.83534C7.57944 9.5042 6.90096 11.9147 6.87565 15C6.90096 18.0853 7.57944 20.4958 8.89226 22.1646C10.2942 23.9469 12.4505 24.8612 15.3017 24.8824C17.872 24.8635 19.5728 24.252 20.9876 22.8385C22.6025 21.225 22.5724 19.2459 22.0559 18.0415C21.7521 17.333 21.2021 16.7436 20.46 16.2957C20.2792 17.6429 19.8699 18.712 19.2226 19.537C18.3704 20.6234 17.1488 21.2175 15.5915 21.3029C14.4124 21.3673 13.2778 21.0829 12.3969 20.5014C11.355 19.8135 10.7452 18.7605 10.68 17.5365C10.5514 15.1235 12.4656 13.3869 15.4431 13.2154C16.5001 13.1548 17.4889 13.2026 18.4031 13.358C18.2817 12.6156 18.0366 12.0274 17.6701 11.6018C17.1665 11.0171 16.3884 10.7173 15.3572 10.7107L15.3286 10.7106C14.5007 10.7106 13.3764 10.9423 12.6601 12.0291L10.9377 10.8476C11.8966 9.39261 13.4545 8.59304 15.3278 8.59304L15.3702 8.59312C18.502 8.61312 20.3671 10.5673 20.5524 13.9806ZM12.7524 17.4215C12.8193 18.6761 14.1751 19.2619 15.4801 19.1884C16.7577 19.1182 18.208 18.6169 18.4552 15.5291C17.7924 15.3842 17.0632 15.3085 16.2839 15.3085C16.047 15.3085 15.8059 15.3154 15.5602 15.3296C13.4145 15.4532 12.7029 16.4913 12.7524 17.4215Z" />
</g>
</svg>
