<svg aria-label="threads" class="a4e icon" width="30" height="30" viewBox="0 0 30 30" fill="none" xmlns="http://www.w3.org/2000/svg">
<!-- DO NOT REMOVE | copyright 2023 by apps4everyone.tech under MIT license -->
<g fill="currentColor">
<path fill-rule="evenodd" clip-rule="evenodd" d="M15 30C23.2843 30 30 23.2843 30 15C30 6.71573 23.2843 0 15 0C6.71573 0 0 6.71573 0 15C0 23.2843 6.71573 30 15 30ZM19.0143 14.2355C19.0941 14.2697 19.1728 14.3055 19.2503 14.3427C20.3463 14.8684 21.1477 15.6644 21.5681 16.6445C22.1541 18.0112 22.2076 20.2374 20.4298 22.0135C19.071 23.3711 17.4216 23.9838 15.0815 24H15.071C12.4389 23.9818 10.4149 23.0961 9.05515 21.3676C7.84518 19.8294 7.22104 17.6891 7.20007 15.0063L7.2 15L7.20007 14.9937C7.22104 12.3108 7.84518 10.1706 9.05515 8.63243C10.4149 6.90392 12.4389 6.01823 15.071 6H15.0815C17.7189 6.0183 19.7659 6.90063 21.1655 8.62256C21.856 9.4721 22.3635 10.4965 22.686 11.6852L21.1722 12.0891C20.9062 11.1233 20.5026 10.295 19.9673 9.63637C18.8755 8.29326 17.2301 7.60418 15.0762 7.58817C12.9379 7.60406 11.3207 8.28983 10.2692 9.6265C9.28458 10.8781 8.77572 12.686 8.75674 15C8.77572 17.3139 9.28458 19.1218 10.2692 20.3735C11.3207 21.7102 12.9379 22.3959 15.0763 22.4118C17.004 22.3976 18.2796 21.939 19.3407 20.8789C20.5519 19.6687 20.5293 18.1844 20.1419 17.2811C19.9141 16.7498 19.5016 16.3077 18.945 15.9718C18.8094 16.9822 18.5024 17.784 18.017 18.4028C17.3778 19.2175 16.4616 19.6631 15.2937 19.7272C14.4093 19.7754 13.5583 19.5622 12.8977 19.126C12.1162 18.6101 11.6589 17.8204 11.61 16.9024C11.5135 15.0926 12.9492 13.7902 15.1823 13.6616C15.9751 13.6161 16.7167 13.6519 17.4023 13.7685C17.3113 13.2117 17.1275 12.7706 16.8526 12.4513C16.4749 12.0128 15.8913 11.7879 15.1179 11.783L15.0964 11.7829C14.4755 11.7829 13.6323 11.9567 13.0951 12.7718L11.8033 11.8857C12.5225 10.7945 13.6909 10.1948 15.0958 10.1948L15.1277 10.1948C17.4765 10.2098 18.8753 11.6755 19.0143 14.2355ZM13.1643 16.8161C13.2145 17.7571 14.2313 18.1964 15.21 18.1413C16.1683 18.0887 17.256 17.7127 17.4414 15.3968C16.9443 15.2882 16.3974 15.2314 15.8129 15.2314C15.6353 15.2314 15.4544 15.2366 15.2701 15.2472C13.6609 15.3399 13.1272 16.1184 13.1643 16.8161Z" />
</g>
</svg>
