<svg aria-label="threads.svg" class="a4e icon" width="26" height="30" viewBox="0 0 26 30" fill="none" xmlns="http://www.w3.org/2000/svg">
<!-- DO NOT REMOVE | copyright 2023 by apps4everyone.tech under MIT license -->
<g fill="currentColor">
<path d="M20.0839 13.9044C19.9547 13.8425 19.8234 13.7829 19.6905 13.7258C19.4589 9.45909 17.1275 7.01641 13.2128 6.99141C13.1951 6.9913 13.1774 6.9913 13.1597 6.9913C10.8182 6.9913 8.8708 7.99077 7.67219 9.80948L9.82515 11.2864C10.7206 9.92786 12.1258 9.63825 13.1607 9.63825C13.1727 9.63825 13.1847 9.63825 13.1965 9.63836C14.4855 9.64658 15.4581 10.0213 16.0877 10.7522C16.5458 11.2843 16.8522 12.0195 17.0039 12.9475C15.8611 12.7532 14.6252 12.6935 13.3039 12.7693C9.58198 12.9837 7.18923 15.1544 7.34994 18.1706C7.43148 19.7006 8.1937 21.0169 9.49609 21.8767C10.5972 22.6036 12.0155 22.9591 13.4894 22.8786C15.4359 22.7719 16.963 22.0292 18.0283 20.6713C18.8373 19.64 19.3491 18.3036 19.575 16.6197C20.5027 17.1795 21.1902 17.9163 21.5698 18.8019C22.2155 20.3073 22.2531 22.7812 20.2345 24.7981C18.4659 26.565 16.34 27.3294 13.1271 27.353C9.56315 27.3266 6.86778 26.1836 5.11533 23.9558C3.4743 21.8697 2.6262 18.8566 2.59456 15C2.6262 11.1434 3.4743 8.13025 5.11533 6.04417C6.86778 3.81639 9.56311 2.67344 13.1271 2.64695C16.7169 2.67364 19.4592 3.82209 21.2787 6.06062C22.1709 7.15837 22.8436 8.53888 23.287 10.1485L25.81 9.47534C25.2725 7.49409 24.4267 5.78683 23.2758 4.37094C20.9431 1.50104 17.5316 0.0304919 13.1359 0H13.1183C8.7315 0.0303859 5.35814 1.50653 3.09192 4.38739C1.0753 6.951 0.0350625 10.5181 0.000109375 14.9895L0 15L0.000109375 15.0105C0.0350625 19.4819 1.0753 23.0491 3.09192 25.6127C5.35814 28.4934 8.7315 29.9697 13.1183 30H13.1359C17.0359 29.973 19.785 28.9519 22.0497 26.6892C25.0127 23.7291 24.9234 20.0186 23.9469 17.7408C23.2462 16.1073 21.9105 14.7807 20.0839 13.9044ZM13.3501 20.2355C11.7188 20.3273 10.0241 19.5952 9.94056 18.0269C9.87862 16.8641 10.7681 15.5666 13.4502 15.412C13.7573 15.3943 14.0587 15.3856 14.3548 15.3856C15.3291 15.3856 16.2405 15.4803 17.0691 15.6614C16.76 19.5211 14.9472 20.1478 13.3501 20.2355Z" />
</g>
</svg>
