<svg aria-label="threads" class="a4e icon" width="30" height="30" viewBox="0 0 30 30" fill="none" xmlns="http://www.w3.org/2000/svg">
<!-- DO NOT REMOVE | copyright 2023 by apps4everyone.tech under MIT license -->
<g fill="currentColor">
<path fill-rule="evenodd" clip-rule="evenodd" d="M15 30C23.2843 30 30 23.2843 30 15C30 6.71573 23.2843 0 15 0C6.71573 0 0 6.71573 0 15C0 23.2843 6.71573 30 15 30ZM15 27.9C22.1245 27.9 27.9 22.1245 27.9 15C27.9 7.87553 22.1245 2.1 15 2.1C7.87553 2.1 2.1 7.87553 2.1 15C2.1 22.1245 7.87553 27.9 15 27.9Z" />
<path d="M19.2505 14.3427C19.173 14.3055 19.0943 14.2697 19.0145 14.2355C18.8755 11.6755 17.4767 10.2098 15.1279 10.1948C15.1172 10.1948 15.1066 10.1948 15.096 10.1948C13.6911 10.1948 12.5227 10.7945 11.8035 11.8857L13.0953 12.7718C13.6325 11.9567 14.4757 11.7829 15.0966 11.7829C15.1038 11.7829 15.111 11.783 15.1181 11.783C15.8915 11.7879 16.4751 12.0128 16.8528 12.4513C17.1277 12.7706 17.3115 13.2117 17.4025 13.7685C16.7169 13.6519 15.9753 13.6161 15.1825 13.6616C12.9494 13.7902 11.5137 15.0926 11.6102 16.9024C11.6591 17.8204 12.1164 18.6101 12.8979 19.126C13.5585 19.5622 14.4095 19.7754 15.2938 19.7272C16.4618 19.6631 17.378 19.2175 18.0172 18.4028C18.5026 17.784 18.8096 16.9822 18.9452 15.9718C19.5018 16.3077 19.9143 16.7498 20.1421 17.2811C20.5295 18.1844 20.5521 19.6687 19.3409 20.8789C18.2798 21.939 17.0042 22.3976 15.0765 22.4118C12.9381 22.3959 11.3209 21.7102 10.2694 20.3735C9.28477 19.1218 8.77592 17.3139 8.75693 15C8.77592 12.686 9.28477 10.8782 10.2694 9.6265C11.3209 8.28983 12.9381 7.60406 15.0764 7.58817C17.2303 7.60418 18.8757 8.29326 19.9674 9.63637C20.5028 10.295 20.9064 11.1233 21.1724 12.0891L22.6862 11.6852C22.3637 10.4965 21.8562 9.4721 21.1657 8.62256C19.7661 6.90063 17.7191 6.0183 15.0817 6H15.0712C12.4391 6.01823 10.4151 6.90392 9.05535 8.63243C7.84537 10.1706 7.22123 12.3108 7.20026 14.9937L7.2002 15L7.20026 15.0063C7.22123 17.6891 7.84537 19.8294 9.05535 21.3676C10.4151 23.0961 12.4391 23.9818 15.0712 24H15.0817C17.4218 23.9838 19.0712 23.3711 20.43 22.0135C22.2078 20.2374 22.1543 18.0112 21.5683 16.6445C21.1479 15.6644 20.3465 14.8684 19.2505 14.3427ZM15.2102 18.1413C14.2315 18.1964 13.2147 17.7571 13.1645 16.8161C13.1274 16.1184 13.6611 15.3399 15.2703 15.2472C15.4546 15.2366 15.6354 15.2314 15.8131 15.2314C16.3976 15.2314 16.9445 15.2882 17.4416 15.3968C17.2562 17.7127 16.1685 18.0887 15.2102 18.1413Z" />
</g>
</svg>
