<svg aria-label="tiktok" class="a4e icon" width="30" height="30" viewBox="0 0 30 30" fill="none" xmlns="http://www.w3.org/2000/svg">
<!-- DO NOT REMOVE | copyright 2023 by apps4everyone.tech under MIT license -->
<g fill="currentColor">
<path fill-rule="evenodd" clip-rule="evenodd" d="M15 30C23.2843 30 30 23.2843 30 15C30 6.71573 23.2843 0 15 0C6.71573 0 0 6.71573 0 15C0 23.2843 6.71573 30 15 30ZM20.5036 9.64332C20.6182 9.71794 20.7365 9.78677 20.858 9.84956C21.6484 10.2437 22.4205 10.3637 22.8008 10.3224V13.3913C22.8008 13.3913 21.7156 13.3463 20.9101 13.1325C19.7874 12.8322 19.0678 12.3709 19.0678 12.3709C19.0678 12.3709 18.5683 12.0406 18.5309 12.0181V18.3598C18.5309 18.7122 18.4375 19.5942 18.1577 20.3295C17.9126 20.9583 17.5621 21.5408 17.1213 22.0518C17.1213 22.0518 16.4313 22.9072 15.2194 23.4813C14.2092 23.96 13.3106 23.9862 12.9537 23.9966C12.9245 23.9975 12.899 23.9982 12.8773 23.9991C12.8773 23.9991 11.218 24.0658 9.72142 23.0489L9.71392 23.0414V23.0489C9.20795 22.6958 8.75675 22.2702 8.37486 21.7856C7.90126 21.1815 7.61065 20.4649 7.53565 20.2549V20.2474C7.41641 19.8908 7.16629 19.028 7.20379 18.1951C7.26341 16.7278 7.75576 15.8238 7.88626 15.5988C8.22917 14.9818 8.67712 14.4294 9.20994 13.9665C9.81803 13.4567 10.5252 13.0785 11.2867 12.8557C12.0483 12.6329 12.8478 12.5704 13.6347 12.672L13.631 15.8196C13.3717 15.7352 13.1008 15.6923 12.8281 15.6925C11.3878 15.6925 10.2205 16.867 10.2205 18.3174C10.2205 19.7678 11.3878 20.9423 12.8281 20.9423C13.2766 20.9428 13.7174 20.8265 14.1072 20.6048C14.4812 20.3923 14.7972 20.0912 15.0275 19.7279C15.2578 19.3646 15.3953 18.9503 15.4279 18.5214V18.5146C15.4298 18.5056 15.4298 18.4966 15.4298 18.488C15.4301 18.4812 15.4306 18.4746 15.431 18.4683C15.4319 18.4551 15.4328 18.4426 15.4328 18.4295C15.4395 18.2728 15.4395 18.1141 15.4395 17.9537V6H18.5309C18.526 6 18.4937 6.29624 18.5717 6.75409H18.568C18.6613 7.30569 18.9148 8.09352 19.5935 8.87011C19.8648 9.1634 20.1704 9.423 20.5036 9.64332Z" />
</g>
</svg>
