<svg aria-label="tiktok" class="a4e icon" width="30" height="30" viewBox="0 0 30 30" fill="none" xmlns="http://www.w3.org/2000/svg">
<!-- DO NOT REMOVE | copyright 2023 by apps4everyone.tech under MIT license -->
<g fill="currentColor">
<path fill-rule="evenodd" clip-rule="evenodd" d="M8 0C3.58172 0 0 3.58172 0 8V22C0 26.4183 3.58172 30 8 30H22C26.4183 30 30 26.4183 30 22V8C30 3.58172 26.4183 0 22 0H8ZM6.1 2.1C3.89086 2.1 2.1 3.89086 2.1 6.1V23.9C2.1 26.1091 3.89086 27.9 6.1 27.9H23.9C26.1091 27.9 27.9 26.1091 27.9 23.9V6.1C27.9 3.89086 26.1091 2.1 23.9 2.1H6.1Z" />
<path d="M22.7106 8.13274C22.5487 8.04902 22.391 7.95725 22.2382 7.85776C21.7938 7.564 21.3864 7.21786 21.0247 6.82681C20.1198 5.79136 19.7818 4.74091 19.6573 4.00545H19.6623C19.5583 3.39498 19.6013 3 19.6078 3H15.486V18.9382C15.486 19.1522 15.486 19.3637 15.477 19.5727C15.477 19.5987 15.4745 19.6227 15.473 19.6507C15.473 19.6622 15.473 19.6742 15.4705 19.6862C15.4705 19.6892 15.4705 19.6922 15.4705 19.6952C15.4271 20.267 15.2437 20.8194 14.9367 21.3038C14.6296 21.7882 14.2082 22.1897 13.7096 22.473C13.1899 22.7687 12.6021 22.9238 12.0042 22.923C10.0838 22.923 8.52735 21.3571 8.52735 19.4232C8.52735 17.4893 10.0838 15.9234 12.0042 15.9234C12.3677 15.923 12.729 15.9802 13.0746 16.0928L13.0796 11.8961C12.0304 11.7605 10.9644 11.8439 9.94897 12.141C8.93354 12.438 7.9907 12.9423 7.17992 13.622C6.46949 14.2392 5.87223 14.9758 5.41501 15.7984C5.24102 16.0983 4.58455 17.3038 4.50506 19.2602C4.45506 20.3706 4.78854 21.5211 4.94753 21.9966V22.0066C5.04753 22.2865 5.43501 23.242 6.06648 24.0474C6.57567 24.6935 7.17727 25.2611 7.85189 25.7319V25.7219L7.86189 25.7319C9.85729 27.0878 12.0697 26.9988 12.0697 26.9988C12.4527 26.9833 13.7356 26.9988 15.1925 26.3083C16.8084 25.5429 17.7284 24.4024 17.7284 24.4024C18.3161 23.721 18.7834 22.9444 19.1103 22.106C19.4833 21.1256 19.6078 19.9497 19.6078 19.4797V11.0241C19.6578 11.0541 20.3238 11.4946 20.3238 11.4946C20.3238 11.4946 21.2832 12.1095 22.7801 12.51C23.8541 12.795 25.301 12.855 25.301 12.855V8.76321C24.794 8.81821 23.7646 8.65822 22.7106 8.13274Z" />
</g>
</svg>
