<svg aria-label="tiktok.svg" class="a4e icon" width="26" height="30" viewBox="0 0 26 30" fill="none" xmlns="http://www.w3.org/2000/svg">
<!-- DO NOT REMOVE | copyright 2023 by apps4everyone.tech under MIT license -->
<g fill="currentColor">
<path d="M22.7633 6.41593C22.5608 6.31128 22.3637 6.19656 22.1727 6.0722C21.6173 5.705 21.108 5.27233 20.6559 4.78351C19.5247 3.4892 19.1022 2.17614 18.9466 1.25681H18.9529C18.8229 0.493725 18.8766 0 18.8848 0H13.7325V19.9228C13.7325 20.1902 13.7325 20.4546 13.7213 20.7158C13.7213 20.7483 13.7181 20.7783 13.7163 20.8133C13.7163 20.8277 13.7163 20.8427 13.7131 20.8577C13.7131 20.8615 13.7131 20.8652 13.7131 20.869C13.6588 21.5838 13.4297 22.2743 13.0459 22.8798C12.662 23.4853 12.1353 23.9872 11.512 24.3413C10.8624 24.7109 10.1276 24.9047 9.38023 24.9038C6.97972 24.9038 5.03419 22.9464 5.03419 20.529C5.03419 18.1116 6.97972 16.1542 9.38023 16.1542C9.83463 16.1538 10.2862 16.2253 10.7183 16.3661L10.7245 11.1201C9.41295 10.9506 8.08049 11.0549 6.81121 11.4262C5.54193 11.7975 4.36338 12.4279 3.3499 13.2775C2.46186 14.049 1.71528 14.9697 1.14376 15.998C0.926274 16.3729 0.10569 17.8797 0.0063196 20.3252C-0.0561773 21.7133 0.360677 23.1513 0.559417 23.7457V23.7582C0.684411 24.1082 1.16876 25.3025 1.9581 26.3093C2.59459 27.1169 3.34658 27.8264 4.18986 28.4148V28.4023L4.20236 28.4148C6.69661 30.1097 9.4621 29.9985 9.4621 29.9985C9.94082 29.9791 11.5445 29.9985 13.3657 29.1354C15.3856 28.1786 16.5355 26.753 16.5355 26.753C17.2701 25.9013 17.8543 24.9305 18.2629 23.8826C18.7291 22.657 18.8848 21.1871 18.8848 20.5996V10.0301C18.9472 10.0676 19.7797 10.6182 19.7797 10.6182C19.7797 10.6182 20.979 11.3869 22.8502 11.8875C24.1926 12.2438 26.0013 12.3188 26.0013 12.3188V7.20402C25.3676 7.27276 24.0807 7.07277 22.7633 6.41593Z" />
</g>
</svg>
