<svg aria-label="tiktok" class="a4e icon" width="30" height="30" viewBox="0 0 30 30" fill="none" xmlns="http://www.w3.org/2000/svg">
<!-- DO NOT REMOVE | copyright 2023 by apps4everyone.tech under MIT license -->
<g fill="currentColor">
<path fill-rule="evenodd" clip-rule="evenodd" d="M8 0C3.58172 0 0 3.58172 0 8V22C0 26.4183 3.58172 30 8 30H22C26.4183 30 30 26.4183 30 22V8C30 3.58172 26.4183 0 22 0H8ZM22.2382 7.85776C22.391 7.95725 22.5487 8.04902 22.7106 8.13274C23.7646 8.65822 24.794 8.81821 25.301 8.76321V12.855C25.301 12.855 23.8541 12.795 22.7801 12.51C21.2832 12.1095 20.3238 11.4946 20.3238 11.4946C20.3238 11.4946 19.6578 11.0541 19.6078 11.0241V19.4797C19.6078 19.9497 19.4833 21.1256 19.1103 22.106C18.7834 22.9444 18.3161 23.721 17.7284 24.4024C17.7284 24.4024 16.8084 25.5429 15.1925 26.3083C13.8456 26.9467 12.6474 26.9816 12.1715 26.9955C12.1327 26.9966 12.0986 26.9976 12.0697 26.9988C12.0697 26.9988 9.85729 27.0878 7.86189 25.7319L7.85189 25.7219V25.7319C7.17727 25.2611 6.57567 24.6936 6.06648 24.0474C5.43501 23.242 5.04753 22.2865 4.94753 22.0066V21.9966C4.78854 21.5211 4.45506 20.3706 4.50506 19.2602C4.58455 17.3038 5.24102 16.0983 5.41501 15.7984C5.87223 14.9758 6.46949 14.2392 7.17992 13.622C7.9907 12.9423 8.93355 12.438 9.94897 12.141C10.9644 11.8439 12.0304 11.7605 13.0796 11.8961L13.0746 16.0928C12.729 15.9802 12.3677 15.923 12.0042 15.9234C10.0838 15.9234 8.52735 17.4893 8.52735 19.4232C8.52735 21.3571 10.0838 22.923 12.0042 22.923C12.6021 22.9238 13.1899 22.7687 13.7096 22.473C14.2082 22.1897 14.6296 21.7882 14.9367 21.3038C15.2437 20.8194 15.4271 20.267 15.4705 19.6952V19.6862C15.473 19.6742 15.473 19.6622 15.473 19.6507C15.4735 19.6416 15.4741 19.6329 15.4747 19.6244C15.4759 19.6068 15.477 19.5902 15.477 19.5727C15.486 19.3637 15.486 19.1522 15.486 18.9383V18.9382V3H19.6078C19.6013 3 19.5583 3.39498 19.6623 4.00545H19.6573C19.7818 4.74091 20.1198 5.79136 21.0247 6.82681C21.3864 7.21786 21.7938 7.564 22.2382 7.85776Z" />
</g>
</svg>
