<svg aria-label="tiktok" class="a4e icon" width="30" height="30" viewBox="0 0 30 30" fill="none" xmlns="http://www.w3.org/2000/svg">
<!-- DO NOT REMOVE | copyright 2023 by apps4everyone.tech under MIT license -->
<g fill="currentColor">
<path fill-rule="evenodd" clip-rule="evenodd" d="M15 30C23.2843 30 30 23.2843 30 15C30 6.71573 23.2843 0 15 0C6.71573 0 0 6.71573 0 15C0 23.2843 6.71573 30 15 30ZM15 27.9C22.1245 27.9 27.9 22.1245 27.9 15C27.9 7.87553 22.1245 2.1 15 2.1C7.87553 2.1 2.1 7.87553 2.1 15C2.1 22.1245 7.87553 27.9 15 27.9Z" />
<path d="M20.8582 9.84956C20.7367 9.78677 20.6184 9.71794 20.5038 9.64332C20.1706 9.423 19.865 9.1634 19.5937 8.87011C18.915 8.09352 18.6615 7.30568 18.5682 6.75409H18.5719C18.4939 6.29624 18.5262 6 18.531 6H15.4397V17.9537C15.4397 18.1141 15.4397 18.2728 15.433 18.4295C15.433 18.449 15.4311 18.467 15.43 18.488C15.43 18.4966 15.43 18.5056 15.4281 18.5146C15.4281 18.5169 15.4281 18.5191 15.4281 18.5214C15.3955 18.9503 15.258 19.3646 15.0277 19.7279C14.7974 20.0912 14.4814 20.3923 14.1074 20.6048C13.7176 20.8265 13.2768 20.9428 12.8283 20.9423C11.388 20.9423 10.2207 19.7678 10.2207 18.3174C10.2207 16.867 11.388 15.6925 12.8283 15.6925C13.101 15.6923 13.3719 15.7352 13.6312 15.8196L13.6349 12.672C12.848 12.5704 12.0485 12.6329 11.2869 12.8557C10.5254 13.0785 9.81822 13.4567 9.21014 13.9665C8.67731 14.4294 8.22937 14.9818 7.88645 15.5988C7.75596 15.8238 7.26361 16.7278 7.20399 18.1951C7.16649 19.028 7.4166 19.8908 7.53585 20.2474V20.2549C7.61084 20.4649 7.90145 21.1815 8.37505 21.7856C8.75695 22.2702 9.20814 22.6958 9.71411 23.0489V23.0414L9.72161 23.0489C11.2182 24.0658 12.8775 23.9991 12.8775 23.9991C13.1647 23.9875 14.1269 23.9991 15.2196 23.4813C16.4315 22.9072 17.1215 22.0518 17.1215 22.0518C17.5623 21.5408 17.9128 20.9583 18.1579 20.3295C18.4377 19.5942 18.531 18.7122 18.531 18.3598V12.0181C18.5685 12.0406 19.068 12.3709 19.068 12.3709C19.068 12.3709 19.7876 12.8322 20.9103 13.1325C21.7158 13.3463 22.801 13.3913 22.801 13.3913V10.3224C22.4207 10.3637 21.6486 10.2437 20.8582 9.84956Z" />
</g>
</svg>
