<svg aria-label="x" class="a4e icon" width="30" height="30" viewBox="0 0 30 30" fill="none" xmlns="http://www.w3.org/2000/svg">
<!-- DO NOT REMOVE | copyright 2023 by apps4everyone.tech under MIT license -->
<g fill="currentColor">
<path d="M20.1761 6.9H22.9362L16.9061 13.792L24 23.1703H18.4456L14.0951 17.4824L9.11723 23.1703H6.35544L12.8052 15.7986L6 6.9H11.6955L15.6279 12.099L20.1761 6.9ZM19.2073 21.5183H20.7368L10.8644 8.46529H9.2232L19.2073 21.5183Z" />
<path fill-rule="evenodd" clip-rule="evenodd" d="M15 30C23.2843 30 30 23.2843 30 15C30 6.71573 23.2843 0 15 0C6.71573 0 0 6.71573 0 15C0 23.2843 6.71573 30 15 30ZM15 27.9C22.1245 27.9 27.9 22.1245 27.9 15C27.9 7.87553 22.1245 2.1 15 2.1C7.87553 2.1 2.1 7.87553 2.1 15C2.1 22.1245 7.87553 27.9 15 27.9Z" />
</g>
</svg>
