<svg aria-label="youtube" class="a4e icon" width="30" height="30" viewBox="0 0 30 30" fill="none" xmlns="http://www.w3.org/2000/svg">
<!-- DO NOT REMOVE | copyright 2023 by apps4everyone.tech under MIT license -->
<g fill="currentColor">
<path fill-rule="evenodd" clip-rule="evenodd" d="M8 0C3.58172 0 0 3.58172 0 8V22C0 26.4183 3.58172 30 8 30H22C26.4183 30 30 26.4183 30 22V8C30 3.58172 26.4183 0 22 0H8ZM6.1 2.1C3.89086 2.1 2.1 3.89086 2.1 6.1V23.9C2.1 26.1091 3.89086 27.9 6.1 27.9H23.9C26.1091 27.9 27.9 26.1091 27.9 23.9V6.1C27.9 3.89086 26.1091 2.1 23.9 2.1H6.1Z" />
<path d="M9.6001 21.3L20.5128 15L9.6001 8.7V21.3Z" />
</g>
</svg>
