<svg aria-label="youtube.svg" class="a4e icon" width="43" height="30" viewBox="0 0 43 30" fill="none" xmlns="http://www.w3.org/2000/svg">
<!-- DO NOT REMOVE | copyright 2023 by apps4everyone.tech under MIT license -->
<g fill="currentColor">
<path fill-rule="evenodd" clip-rule="evenodd" d="M38.1702 0.896049C40.0152 1.38993 41.4652 2.83984 41.959 4.68486C42.8515 8.02563 42.8551 15 42.8551 15C42.8551 15 42.8551 21.9744 41.959 25.3152C41.4652 27.1602 40.0152 28.6101 38.1702 29.1039C34.8295 30 21.4275 30 21.4275 30C21.4275 30 8.02563 30 4.68484 29.1039C2.83984 28.6101 1.38993 27.1602 0.896049 25.3152C0 21.9744 0 15 0 15C0 15 0 8.02563 0.896049 4.68486C1.38993 2.83984 2.83984 1.38993 4.68484 0.896049C8.02563 0 21.4275 0 21.4275 0C21.4275 0 34.8295 0 38.1702 0.896049ZM28.2715 15.0006L17.1379 21.4281V8.57299L28.2715 15.0006Z" />
</g>
</svg>
